<svg width="200" height="226" viewBox="0 0 200 226" fill="none" xmlns="http://www.w3.org/2000/svg">
    <path d="M40.5954 172.767H65.3623C67.1061 172.767 68.5183 171.34 68.5183 169.578V161.87C68.5183 158.902 66.1379 156.497 63.2012 156.497H40.4136L40.5954 172.767Z" fill="#EBEBEB"/>
    <path d="M64.9501 177.616H16.2509C14.9243 177.616 13.8491 176.529 13.8491 175.189C13.8491 173.848 14.9243 172.762 16.2509 172.762H64.9448C66.2714 172.762 67.3466 173.848 67.3466 175.189C67.3466 176.529 66.2714 177.616 64.9501 177.616Z" fill="#EBEBEB"/>
    <path d="M6.32825 108.161L33.1171 107.68L50.1222 172.627L13.8492 172.994L0.182008 116.059C-0.786199 112.037 2.23076 108.161 6.32825 108.161Z" fill="#E0E0E0"/>
    <path d="M19.6747 177.616L11.6562 224.692H13.8548L24.3927 177.616H19.6747Z" fill="#EBEBEB"/>
    <path d="M38.5682 177.616L30.0522 224.692H32.2454L43.2862 177.616H38.5682Z" fill="#E0E0E0"/>
    <path d="M59.4675 177.616L68.9731 224.692H66.7745L54.7495 177.616H59.4675Z" fill="#EBEBEB"/>
    <path d="M30.0522 107.68L43.3076 172.691H53.4764L42.8476 115.248C42.0452 110.864 38.2579 107.68 33.8448 107.68H30.0522Z" fill="#EBEBEB"/>
    <path d="M71.1774 131.324H107.846V129.524H71.1774V131.324Z" fill="#EBEBEB"/>
    <path d="M113.532 131.323L120.406 105.28H91.7768L85.5503 131.323H113.532Z" fill="#EBEBEB"/>
    <path d="M87.2671 129.356H112.842L118.795 106.485H93.087L87.2671 129.356Z" fill="#E0E0E0"/>
    <path d="M65.7688 136.659H63.918V226H65.7688V136.659Z" fill="#F5F5F5"/>
    <path d="M67.6199 136.918H65.769V226H67.6199V136.918Z" fill="#EBEBEB"/>
    <path d="M179.851 136.659H178V226H179.851V136.659Z" fill="#EBEBEB"/>
    <path d="M181.702 136.918H179.852V226H181.702V136.918Z" fill="#E0E0E0"/>
    <path d="M196.578 131.469H55.9209V138.799H196.578V131.469Z" fill="#E0E0E0"/>
    <path d="M178.926 138.799H117.003V150.929H178.926V138.799Z" fill="#EBEBEB"/>
    <path d="M150.725 144.026C150.725 144.794 150.11 145.421 149.345 145.421C148.585 145.421 147.965 144.799 147.965 144.026C147.965 143.259 148.58 142.632 149.345 142.632C150.11 142.632 150.725 143.253 150.725 144.026Z" fill="#E0E0E0"/>
    <path d="M199.183 225.146C199.183 225.222 154.631 225.286 99.6854 225.286C44.7216 225.286 0.178711 225.222 0.178711 225.146C0.178711 225.07 44.7216 225.005 99.6854 225.005C154.631 225.005 199.183 225.065 199.183 225.146Z" fill="#343542"/>
    <path d="M85.6628 222.33L87.0375 216.378L98.5009 216.665L97.5434 225.124L96.8159 225.178C93.5689 225.4 80.2975 226.076 78.1204 225.438C75.6919 224.73 85.6628 222.33 85.6628 222.33Z" fill="#FF962E"/>
    <g opacity="0.4">
        <g opacity="0.4">
            <g opacity="0.4">
                <g opacity="0.4">
                    <g opacity="0.4">
                        <g opacity="0.4">
                            <g opacity="0.4">
                                <path opacity="0.4" d="M93.2793 225.087C93.4344 224.092 93.9693 223.162 94.7503 222.53C95.5313 221.903 96.4942 221.562 97.4891 221.632L97.5319 224.957L93.2793 225.087Z" fill="black"/>
                            </g>
                        </g>
                    </g>
                </g>
            </g>
        </g>
    </g>
    <g opacity="0.4">
        <g opacity="0.4">
            <g opacity="0.4">
                <g opacity="0.4">
                    <g opacity="0.4">
                        <path opacity="0.4" d="M80.7946 223.681C80.7946 223.681 77.3016 224.746 77.7455 225.324C78.1895 225.903 91.6267 225.73 97.5483 225.13L97.5269 224.865L81.8537 225.2C81.8537 225.2 81.4793 223.697 80.7946 223.681Z" fill="black"/>
                    </g>
                </g>
            </g>
        </g>
    </g>
    <path d="M97.7093 224.849C97.7093 224.854 97.6398 224.859 97.506 224.876C97.3295 224.887 97.1423 224.903 96.923 224.919C96.3399 224.951 95.6285 224.995 94.7833 225.038C92.9752 225.124 90.4825 225.216 87.7223 225.254C84.9621 225.292 82.464 225.27 80.656 225.232C79.8108 225.205 79.0994 225.189 78.5163 225.168C78.3023 225.157 78.1098 225.151 77.9333 225.141C77.7995 225.135 77.73 225.124 77.73 225.119C77.73 225.114 77.7995 225.108 77.9333 225.108C78.1098 225.108 78.297 225.108 78.5163 225.108C79.0994 225.114 79.8108 225.119 80.656 225.124C82.464 225.141 84.9621 225.141 87.717 225.108C90.4718 225.07 92.9699 224.995 94.7779 224.935C95.6231 224.908 96.3345 224.881 96.9176 224.859C97.1316 224.854 97.3242 224.849 97.5007 224.843C97.6398 224.843 97.7093 224.849 97.7093 224.849Z" fill="#343542"/>
    <path d="M81.8592 225.384C81.8165 225.389 81.7737 224.876 81.4474 224.357C81.1264 223.832 80.6824 223.573 80.7092 223.54C80.7199 223.503 81.2227 223.724 81.5704 224.281C81.9181 224.832 81.8913 225.389 81.8592 225.384Z" fill="#343542"/>
    <path d="M85.3095 223.557C85.2774 223.578 85.1063 223.378 84.9351 223.103C84.7586 222.832 84.6462 222.595 84.6783 222.573C84.7104 222.551 84.8816 222.751 85.0528 223.027C85.2239 223.297 85.3416 223.535 85.3095 223.557Z" fill="#343542"/>
    <path d="M86.2564 223.038C86.2296 223.07 86.0424 222.946 85.8391 222.762C85.6359 222.578 85.4914 222.411 85.5128 222.378C85.5396 222.346 85.7268 222.47 85.9301 222.654C86.1334 222.832 86.2831 223.005 86.2564 223.038Z" fill="#343542"/>
    <path d="M86.8446 221.903C86.8446 221.941 86.5718 221.984 86.2294 221.989C85.8871 221.995 85.6143 221.973 85.6143 221.93C85.6143 221.892 85.8871 221.849 86.2294 221.843C86.5664 221.838 86.8392 221.865 86.8446 221.903Z" fill="#343542"/>
    <path d="M87.0368 221.114C87.0529 221.151 86.7533 221.292 86.3521 221.324C85.9509 221.362 85.6353 221.276 85.6407 221.238C85.646 221.195 85.9563 221.216 86.3361 221.178C86.7212 221.146 87.0261 221.07 87.0368 221.114Z" fill="#343542"/>
    <path d="M84.8973 222.524C84.8973 222.54 84.6084 222.578 84.143 222.53C83.9077 222.503 83.6349 222.454 83.3353 222.362C83.1855 222.313 83.0304 222.276 82.8699 222.178C82.795 222.13 82.7094 222.059 82.6773 221.946C82.6452 221.832 82.7041 221.703 82.7897 221.638C83.5065 221.249 84.2393 221.654 84.5121 222.027C84.6619 222.216 84.7315 222.405 84.7635 222.535C84.7956 222.665 84.7956 222.74 84.7849 222.74C84.7582 222.751 84.7314 222.438 84.4319 222.092C84.2875 221.924 84.0628 221.757 83.7793 221.676C83.5118 221.6 83.132 221.584 82.8806 221.751C82.7629 221.843 82.8111 221.984 82.9448 222.065C83.0678 222.146 83.2337 222.189 83.3727 222.243C83.6616 222.34 83.9291 222.4 84.1537 222.438C84.6084 222.503 84.8973 222.503 84.8973 222.524Z" fill="#343542"/>
    <path d="M84.6995 222.568C84.6888 222.578 84.5765 222.384 84.6032 222.038C84.6193 221.87 84.6781 221.67 84.8011 221.476C84.9349 221.303 85.1007 221.07 85.427 221.076C85.6035 221.097 85.6891 221.297 85.6623 221.427C85.6516 221.562 85.5928 221.676 85.5393 221.768C85.427 221.962 85.304 222.114 85.1863 222.232C84.9509 222.47 84.7637 222.562 84.7583 222.546C84.7423 222.53 84.9081 222.405 85.1114 222.162C85.213 222.038 85.3254 221.887 85.4216 221.697C85.5233 221.535 85.5928 221.243 85.4002 221.211C85.213 221.195 85.0205 221.389 84.9081 221.541C84.7904 221.708 84.7263 221.887 84.6995 222.038C84.6514 222.362 84.7263 222.557 84.6995 222.568Z" fill="#343542"/>
    <path d="M97.4303 221.6C97.4303 221.627 97.0933 221.573 96.5637 221.643C96.0395 221.708 95.3067 221.935 94.6755 222.459C94.0443 222.984 93.6805 223.659 93.5093 224.168C93.3382 224.681 93.3221 225.022 93.2954 225.022C93.2847 225.022 93.2793 224.935 93.29 224.784C93.3007 224.627 93.3328 224.405 93.4077 224.141C93.5575 223.611 93.9212 222.897 94.5792 222.351C95.2371 221.811 96.0021 221.589 96.5477 221.546C96.8205 221.524 97.0452 221.535 97.1949 221.557C97.3501 221.568 97.4303 221.589 97.4303 221.6Z" fill="#343542"/>
    <path d="M96.1469 216.665C96.1848 216.665 96.2443 217.757 96.2822 219.108C96.3147 220.459 96.3147 221.551 96.2714 221.551C96.2335 221.551 96.174 220.459 96.1361 219.108C96.1036 217.762 96.109 216.665 96.1469 216.665Z" fill="#343542"/>
    <path d="M91.7819 223.946C91.7872 223.984 91.0223 224.119 90.0648 224.141C89.1073 224.162 88.337 224.06 88.3423 224.022C88.3477 223.978 89.1126 224.016 90.0648 223.995C91.0116 223.973 91.7765 223.903 91.7819 223.946Z" fill="#343542"/>
    <path d="M94.0873 223.914C94.114 223.941 94.0284 224.081 93.9482 224.259C93.868 224.438 93.8305 224.595 93.7931 224.595C93.7556 224.595 93.7289 224.405 93.8198 224.2C93.9108 223.989 94.0659 223.881 94.0873 223.914Z" fill="#343542"/>
    <path d="M94.9431 222.805C94.9699 222.832 94.895 222.957 94.7773 223.086C94.6596 223.211 94.5366 223.292 94.5098 223.265C94.4831 223.238 94.558 223.114 94.6756 222.984C94.7933 222.859 94.9164 222.778 94.9431 222.805Z" fill="#343542"/>
    <path d="M96.1845 222.292C96.1792 222.33 96.0187 222.335 95.8475 222.395C95.6763 222.454 95.5533 222.551 95.5212 222.524C95.4891 222.503 95.5854 222.33 95.7993 222.259C96.0133 222.184 96.1952 222.254 96.1845 222.292Z" fill="#343542"/>
    <path d="M97.0668 222.043C97.0828 222.081 97.0133 222.14 96.917 222.184C96.8207 222.222 96.7298 222.227 96.7137 222.189C96.6977 222.151 96.7672 222.092 96.8635 222.049C96.9598 222.011 97.0508 222.005 97.0668 222.043Z" fill="#343542"/>
    <path d="M132.571 222.357L132.608 216.005L120.84 215.859L120.69 225.146L121.417 225.2C124.664 225.422 137.936 226.097 140.113 225.459C142.541 224.757 132.571 222.357 132.571 222.357Z" fill="#FF962E"/>
    <g opacity="0.4">
        <g opacity="0.4">
            <g opacity="0.4">
                <g opacity="0.4">
                    <g opacity="0.4">
                        <g opacity="0.4">
                            <g opacity="0.4">
                                <path opacity="0.4" d="M124.954 225.113C124.799 224.119 124.264 223.189 123.483 222.557C122.702 221.93 121.739 221.589 120.744 221.659L120.702 224.984L124.954 225.113Z" fill="black"/>
                            </g>
                        </g>
                    </g>
                </g>
            </g>
        </g>
    </g>
    <g opacity="0.4">
        <g opacity="0.4">
            <g opacity="0.4">
                <g opacity="0.4">
                    <g opacity="0.4">
                        <path opacity="0.4" d="M137.439 223.708C137.439 223.708 140.932 224.773 140.488 225.351C140.044 225.93 126.607 225.757 120.686 225.157L120.707 224.892L136.38 225.227C136.38 225.227 136.755 223.73 137.439 223.708Z" fill="black"/>
                    </g>
                </g>
            </g>
        </g>
    </g>
    <path d="M120.523 224.881C120.523 224.886 120.592 224.892 120.726 224.908C120.903 224.919 121.09 224.935 121.309 224.951C121.892 224.984 122.604 225.027 123.449 225.07C125.257 225.157 127.75 225.249 130.51 225.287C133.27 225.324 135.768 225.303 137.576 225.265C138.421 225.238 139.133 225.222 139.716 225.2C139.93 225.189 140.122 225.178 140.299 225.173C140.433 225.168 140.502 225.157 140.502 225.151C140.502 225.146 140.433 225.141 140.299 225.141C140.122 225.141 139.935 225.141 139.716 225.141C139.133 225.146 138.421 225.151 137.576 225.157C135.768 225.173 133.27 225.173 130.515 225.141C127.76 225.103 125.262 225.027 123.454 224.968C122.609 224.941 121.898 224.914 121.315 224.892C121.101 224.886 120.908 224.881 120.732 224.876C120.592 224.876 120.523 224.876 120.523 224.881Z" fill="#343542"/>
    <path d="M136.373 225.411C136.415 225.416 136.458 224.903 136.784 224.384C137.105 223.859 137.549 223.6 137.523 223.567C137.512 223.53 137.009 223.751 136.661 224.308C136.314 224.865 136.34 225.416 136.373 225.411Z" fill="#343542"/>
    <path d="M132.923 223.584C132.955 223.605 133.126 223.405 133.297 223.13C133.474 222.859 133.586 222.622 133.554 222.6C133.522 222.578 133.351 222.778 133.18 223.054C133.008 223.324 132.891 223.562 132.923 223.584Z" fill="#343542"/>
    <path d="M131.976 223.065C132.002 223.097 132.19 222.973 132.393 222.789C132.596 222.605 132.741 222.438 132.719 222.405C132.693 222.373 132.505 222.497 132.302 222.681C132.099 222.865 131.949 223.032 131.976 223.065Z" fill="#343542"/>
    <path d="M131.387 221.935C131.387 221.973 131.66 222.016 132.002 222.022C132.339 222.032 132.618 222.005 132.618 221.962C132.618 221.924 132.345 221.881 132.002 221.876C131.665 221.87 131.387 221.892 131.387 221.935Z" fill="#343542"/>
    <path d="M131.189 221.14C131.173 221.178 131.473 221.319 131.874 221.351C132.275 221.389 132.591 221.303 132.585 221.265C132.58 221.221 132.27 221.243 131.89 221.205C131.51 221.173 131.205 221.097 131.189 221.14Z" fill="#343542"/>
    <path d="M133.334 222.551C133.334 222.568 133.623 222.605 134.089 222.557C134.324 222.53 134.597 222.481 134.896 222.389C135.046 222.341 135.201 222.303 135.362 222.205C135.437 222.157 135.522 222.086 135.554 221.973C135.586 221.859 135.528 221.73 135.442 221.665C134.725 221.276 133.992 221.681 133.72 222.054C133.57 222.243 133.5 222.432 133.468 222.562C133.436 222.692 133.436 222.768 133.447 222.768C133.474 222.778 133.5 222.465 133.8 222.119C133.944 221.946 134.169 221.784 134.452 221.703C134.72 221.627 135.1 221.611 135.351 221.778C135.469 221.87 135.421 222.011 135.287 222.092C135.164 222.173 134.998 222.216 134.859 222.27C134.57 222.368 134.303 222.427 134.078 222.465C133.623 222.53 133.334 222.53 133.334 222.551Z" fill="#343542"/>
    <path d="M133.532 222.594C133.543 222.605 133.655 222.411 133.628 222.065C133.612 221.897 133.554 221.697 133.43 221.503C133.297 221.33 133.131 221.097 132.805 221.103C132.628 221.124 132.543 221.324 132.569 221.454C132.58 221.589 132.639 221.703 132.692 221.794C132.805 221.989 132.928 222.14 133.045 222.259C133.281 222.497 133.468 222.589 133.473 222.573C133.489 222.557 133.323 222.432 133.12 222.189C133.019 222.065 132.906 221.913 132.81 221.724C132.708 221.562 132.639 221.27 132.831 221.238C133.019 221.221 133.211 221.416 133.323 221.567C133.441 221.735 133.505 221.913 133.532 222.065C133.58 222.389 133.505 222.589 133.532 222.594Z" fill="#343542"/>
    <path d="M120.803 221.627C120.803 221.654 121.14 221.6 121.67 221.67C122.194 221.735 122.927 221.962 123.558 222.486C124.189 223.011 124.553 223.686 124.724 224.195C124.895 224.708 124.911 225.049 124.938 225.049C124.949 225.049 124.954 224.962 124.944 224.811C124.933 224.654 124.901 224.432 124.826 224.168C124.676 223.638 124.312 222.924 123.654 222.378C122.996 221.838 122.231 221.616 121.686 221.573C121.413 221.551 121.188 221.562 121.039 221.584C120.883 221.6 120.803 221.622 120.803 221.627Z" fill="#343542"/>
    <path d="M122.087 216.697C122.049 216.697 121.989 217.789 121.951 219.14C121.919 220.492 121.919 221.584 121.962 221.584C122 221.584 122.06 220.492 122.098 219.14C122.13 217.789 122.125 216.697 122.087 216.697Z" fill="#343542"/>
    <path d="M126.45 223.973C126.444 224.011 127.209 224.146 128.167 224.167C129.124 224.189 129.895 224.086 129.889 224.049C129.884 224.005 129.119 224.043 128.167 224.022C127.22 224.005 126.455 223.93 126.45 223.973Z" fill="#343542"/>
    <path d="M124.145 223.941C124.118 223.968 124.203 224.108 124.284 224.286C124.364 224.465 124.401 224.622 124.439 224.622C124.476 224.622 124.503 224.432 124.412 224.227C124.321 224.022 124.166 223.914 124.145 223.941Z" fill="#343542"/>
    <path d="M123.289 222.838C123.262 222.865 123.337 222.989 123.454 223.119C123.572 223.243 123.695 223.324 123.722 223.297C123.749 223.27 123.674 223.146 123.556 223.016C123.433 222.886 123.315 222.805 123.289 222.838Z" fill="#343542"/>
    <path d="M122.047 222.319C122.053 222.357 122.213 222.362 122.384 222.422C122.555 222.481 122.679 222.578 122.711 222.551C122.743 222.53 122.646 222.357 122.432 222.286C122.218 222.211 122.037 222.281 122.047 222.319Z" fill="#343542"/>
    <path d="M121.165 222.07C121.149 222.108 121.218 222.168 121.315 222.211C121.411 222.249 121.502 222.254 121.518 222.216C121.534 222.178 121.464 222.119 121.368 222.076C121.272 222.038 121.181 222.038 121.165 222.07Z" fill="#343542"/>
    <path d="M139.262 106.442L133.907 220.859L119.207 221.211L120.368 122.004L98.3722 221.4L85.8604 220.827L105.487 106.675L139.262 106.442Z" fill="#343542"/>
    <path d="M123.968 107.988C124.011 107.993 123.957 108.712 123.834 109.869C123.711 111.026 123.524 112.621 123.299 114.383C123.176 115.258 123.107 116.107 122.887 116.869C122.679 117.631 122.272 118.269 121.807 118.648C121.352 119.042 120.881 119.21 120.56 119.269C120.234 119.329 120.052 119.296 120.052 119.28C120.031 119.221 120.828 119.264 121.662 118.485C122.08 118.112 122.427 117.523 122.609 116.794C122.802 116.069 122.866 115.221 122.984 114.345C123.208 112.583 123.433 110.994 123.609 109.842C123.797 108.691 123.925 107.983 123.968 107.988Z" fill="#455A64"/>
    <path d="M120.352 108.669C120.389 108.696 120.256 108.885 120.347 109.183C120.389 109.323 120.496 109.485 120.652 109.55C120.807 109.62 121.015 109.572 121.17 109.426C121.326 109.274 121.384 109.069 121.32 108.912C121.261 108.75 121.112 108.637 120.973 108.583C120.684 108.474 120.491 108.599 120.464 108.556C120.427 108.539 120.614 108.291 121.026 108.366C121.213 108.404 121.454 108.529 121.577 108.799C121.705 109.069 121.609 109.437 121.374 109.647C121.149 109.869 120.785 109.95 120.523 109.804C120.261 109.664 120.154 109.415 120.127 109.226C120.085 108.81 120.341 108.631 120.352 108.669Z" fill="#455A64"/>
    <path d="M111.023 110.642C110.948 110.669 110.664 109.956 110.734 109.031C110.793 108.107 111.173 107.437 111.242 107.475C111.328 107.507 111.098 108.188 111.044 109.053C110.98 109.912 111.114 110.615 111.023 110.642Z" fill="#455A64"/>
    <path d="M113.12 110.426C113.045 110.453 112.772 109.718 112.81 108.766C112.836 107.815 113.157 107.102 113.227 107.129C113.313 107.156 113.141 107.875 113.115 108.777C113.082 109.675 113.211 110.404 113.12 110.426Z" fill="#455A64"/>
    <path d="M131.205 110.215C131.12 110.193 131.232 109.437 131.243 108.507C131.259 107.572 131.168 106.815 131.253 106.793C131.334 106.772 131.564 107.534 131.548 108.507C131.537 109.485 131.286 110.237 131.205 110.215Z" fill="#455A64"/>
    <path d="M133.484 110.004C133.399 109.972 133.645 109.22 133.672 108.264C133.709 107.307 133.511 106.539 133.597 106.512C133.672 106.48 134.014 107.253 133.976 108.274C133.95 109.296 133.554 110.042 133.484 110.004Z" fill="#455A64"/>
    <path d="M130.125 34.7008C130.73 33.9873 131.195 32.7062 130.831 31.8413C131.543 31.463 131.612 30.8251 131.607 30.0143C131.607 29.2035 131.291 28.4197 130.912 27.7062C130.302 26.5494 129.473 25.4575 128.328 24.8467C127.183 24.2305 125.669 24.1926 124.658 25.0088C123.193 23.0791 119.994 22.8521 118.277 24.5602C117.966 24.8683 117.694 25.2359 117.309 25.4521C116.672 25.8088 115.891 25.6737 115.164 25.744C113.987 25.8521 112.885 26.5602 112.28 27.5818C111.676 28.6089 111.59 29.9224 112.05 31.0197C111.002 31.6684 110.44 32.9278 110.322 34.1711C110.205 35.4089 110.472 36.6468 110.74 37.863C111.071 39.3603 111.446 40.9333 112.494 42.0414C113.211 42.7982 114.211 43.2739 115.244 43.355C116.725 43.4685 118.239 42.7495 119.095 41.5225" fill="#343542"/>
    <path d="M114.468 60.209L126.354 59.6576C126.424 58.382 125.776 50.4954 125.776 50.4954C125.776 50.4954 130.27 49.7873 130.323 45.2521C130.377 40.7115 129.601 30.2898 129.601 30.2898C124.402 28.0303 118.4 28.7925 113.912 32.2844L113.249 32.8033L114.468 60.209Z" fill="#FFBE9D"/>
    <path d="M125.782 50.4305C125.782 50.4305 122.941 50.6629 119.924 48.7494C119.924 48.7494 121.31 52.0143 125.792 51.6089L125.782 50.4305Z" fill="#E19E89"/>
    <path d="M113.8 37.5005C113.725 37.4681 110.713 36.5762 110.809 39.6843C110.906 42.787 113.971 42.0465 113.971 41.96C113.981 41.8681 113.8 37.5005 113.8 37.5005Z" fill="#FFBE9D"/>
    <path d="M113.003 40.8086C112.986 40.7978 112.949 40.8465 112.863 40.8951C112.778 40.9384 112.628 40.9708 112.462 40.9167C112.136 40.8086 111.842 40.2951 111.81 39.7384C111.794 39.4573 111.842 39.187 111.933 38.96C112.018 38.7275 112.157 38.5654 112.323 38.5329C112.484 38.4897 112.601 38.587 112.644 38.6735C112.687 38.76 112.671 38.8194 112.687 38.8248C112.698 38.8302 112.751 38.7708 112.724 38.641C112.708 38.5816 112.671 38.5059 112.596 38.4519C112.521 38.3924 112.409 38.3654 112.296 38.3816C112.061 38.4032 111.852 38.6302 111.751 38.8789C111.638 39.1275 111.574 39.4356 111.59 39.7492C111.628 40.3762 111.965 40.9492 112.414 41.0627C112.633 41.1113 112.81 41.0411 112.901 40.9654C112.997 40.8843 113.013 40.814 113.003 40.8086Z" fill="#E19E89"/>
    <path d="M128.611 37.4034C128.622 37.7439 128.344 38.0358 127.991 38.0574C127.638 38.0791 127.343 37.8142 127.327 37.4737C127.317 37.1331 127.595 36.8358 127.948 36.8196C128.301 36.798 128.601 37.0628 128.611 37.4034Z" fill="#343542"/>
    <path d="M128.75 36.6736C128.67 36.7601 128.183 36.3926 127.493 36.398C126.803 36.3871 126.295 36.7493 126.22 36.6628C126.183 36.625 126.263 36.4736 126.488 36.3115C126.707 36.1493 127.076 35.9926 127.504 35.9926C127.932 35.9926 128.296 36.1547 128.504 36.3169C128.718 36.4845 128.793 36.6358 128.75 36.6736Z" fill="#343542"/>
    <path d="M121.85 37.5654C121.861 37.9059 121.583 38.1978 121.23 38.2194C120.876 38.2411 120.582 37.9762 120.566 37.6356C120.556 37.2951 120.834 36.9978 121.187 36.9816C121.545 36.96 121.839 37.2248 121.85 37.5654Z" fill="#343542"/>
    <path d="M121.968 36.8027C121.887 36.8892 121.401 36.5216 120.711 36.527C120.021 36.5216 119.512 36.8783 119.438 36.7919C119.4 36.754 119.48 36.6027 119.705 36.4405C119.924 36.2783 120.293 36.1216 120.721 36.1216C121.149 36.1216 121.513 36.2837 121.722 36.4459C121.93 36.6135 122.005 36.7648 121.968 36.8027Z" fill="#343542"/>
    <path d="M124.471 41.9764C124.466 41.9385 124.899 41.8629 125.595 41.771C125.771 41.7548 125.937 41.7169 125.969 41.598C126.012 41.4683 125.937 41.2791 125.851 41.0683C125.685 40.6358 125.514 40.1872 125.332 39.7115C124.61 37.7817 124.086 36.1925 124.161 36.1655C124.236 36.1385 124.888 37.679 125.611 39.6088C125.787 40.0845 125.953 40.5385 126.108 40.971C126.172 41.171 126.29 41.4034 126.199 41.6683C126.151 41.8034 126.022 41.9007 125.91 41.9277C125.798 41.9602 125.696 41.9656 125.611 41.971C124.91 42.0142 124.477 42.0196 124.471 41.9764Z" fill="#343542"/>
    <path d="M122.439 42.4629C122.551 42.4575 122.551 43.2142 123.193 43.7494C123.835 44.2899 124.632 44.2034 124.637 44.3116C124.648 44.3602 124.461 44.4575 124.124 44.4683C123.792 44.4791 123.311 44.371 122.92 44.0413C122.53 43.7115 122.358 43.2737 122.337 42.9602C122.305 42.6413 122.391 42.4575 122.439 42.4629Z" fill="#343542"/>
    <path d="M122.144 34.0683C122.075 34.2575 121.385 34.1656 120.577 34.2683C119.764 34.3494 119.111 34.5926 119.005 34.4196C118.956 34.3385 119.069 34.1602 119.336 33.9764C119.598 33.7926 120.016 33.6196 120.502 33.5656C120.989 33.5115 121.433 33.5872 121.727 33.7115C122.021 33.8304 122.171 33.9818 122.144 34.0683Z" fill="#343542"/>
    <path d="M128.499 34.652C128.376 34.8088 127.9 34.6466 127.328 34.6358C126.755 34.6088 126.274 34.7439 126.161 34.5763C126.113 34.4953 126.188 34.3385 126.402 34.1871C126.611 34.0358 126.958 33.9169 127.354 33.9277C127.745 33.9385 128.087 34.0844 128.285 34.2466C128.483 34.4142 128.553 34.5763 128.499 34.652Z" fill="#343542"/>
    <path d="M113.008 32.5926C113.067 33.917 112.778 35.3872 113.008 36.69C113.04 36.8846 113.548 37.4089 113.591 37.6035C113.853 38.7548 114.329 39.2467 115.003 38.0575C115.265 37.6035 115.431 36.3332 115.533 35.8197C115.805 34.4197 116.078 33.0251 116.351 31.6251C117.421 32.1278 118.587 32.5169 119.764 32.4413C120.946 32.371 122.144 31.7656 122.685 30.7007C123.246 31.6413 124.241 32.3007 125.316 32.4413C126.392 32.5818 127.526 32.2088 128.307 31.4467C128.708 32.0953 129.66 32.2737 130.307 31.8791C130.954 31.4845 131.243 30.6142 131.035 29.8737C130.724 28.7656 129.553 28.1656 128.456 27.8412C124.182 26.571 119.459 27.5656 115.618 29.8467C115.057 30.1764 114.506 30.544 114.067 31.025C113.628 31.5115 113.019 32.0791 113.002 32.7332" fill="#343542"/>
    <path d="M123.182 40.0523C123.16 40.0307 123.342 39.8577 123.556 39.4739C123.765 39.0955 123.99 38.4631 123.872 37.6901C123.776 36.9333 123.257 36.0468 122.337 35.6198C121.438 35.182 120.154 35.3171 119.336 36.1604C118.501 36.9874 118.368 38.2847 118.801 39.1928C119.223 40.128 120.095 40.6469 120.85 40.7442C121.615 40.8577 122.24 40.6361 122.615 40.4253C122.995 40.2144 123.166 40.0307 123.182 40.0523C123.187 40.0577 123.15 40.1063 123.07 40.1928C122.989 40.2793 122.856 40.3982 122.668 40.5226C122.299 40.7712 121.647 41.0469 120.823 40.9496C120.015 40.8685 119.047 40.328 118.571 39.3063C118.336 38.809 118.229 38.209 118.325 37.609C118.405 37.009 118.699 36.4198 119.143 35.9658C119.598 35.5171 120.176 35.2198 120.769 35.1387C121.363 35.0468 121.957 35.1495 122.449 35.3874C123.455 35.8685 123.995 36.8468 124.075 37.6631C124.171 38.4955 123.899 39.155 123.653 39.5279C123.53 39.7171 123.412 39.8523 123.326 39.9334C123.241 40.0198 123.193 40.0577 123.182 40.0523Z" fill="#455A64"/>
    <path d="M130.291 40.0523C130.269 40.0307 130.451 39.8577 130.665 39.4739C130.874 39.0955 131.099 38.4631 130.981 37.6901C130.885 36.9333 130.366 36.0468 129.446 35.6198C128.547 35.182 127.263 35.3171 126.445 36.1604C125.61 36.9874 125.477 38.2847 125.91 39.1928C126.332 40.128 127.204 40.6469 127.959 40.7442C128.723 40.8577 129.349 40.6361 129.724 40.4253C130.098 40.2144 130.269 40.0307 130.291 40.0523C130.296 40.0577 130.259 40.1063 130.178 40.1928C130.098 40.2793 129.964 40.3982 129.777 40.5226C129.408 40.7712 128.756 41.0469 127.932 40.9496C127.124 40.8685 126.151 40.328 125.68 39.3063C125.444 38.809 125.337 38.209 125.434 37.609C125.514 37.009 125.808 36.4198 126.252 35.9658C126.707 35.5171 127.285 35.2198 127.878 35.1387C128.472 35.0468 129.066 35.1495 129.558 35.3874C130.564 35.8685 131.104 36.8468 131.184 37.6631C131.28 38.4955 131.008 39.155 130.762 39.5279C130.638 39.7171 130.521 39.8523 130.435 39.9334C130.344 40.0198 130.296 40.0577 130.291 40.0523Z" fill="#455A64"/>
    <path d="M125.578 37.8361C125.578 37.9118 125.225 37.9766 124.787 37.9766C124.348 37.9766 123.995 37.9118 123.995 37.8361C123.995 37.7604 124.348 37.6956 124.787 37.6956C125.225 37.6956 125.578 37.7604 125.578 37.8361Z" fill="#455A64"/>
    <path d="M113.585 37.6036C113.585 37.5279 114.677 37.4252 116.03 37.3819C117.383 37.3387 118.485 37.3603 118.485 37.4414C118.485 37.5171 117.394 37.6198 116.035 37.663C114.687 37.7063 113.591 37.6792 113.585 37.6036Z" fill="#455A64"/>
    <path d="M116.169 36.7494L112.328 35.3494L108.691 36.6305L103.657 41.9494L100.383 45.1062L105.749 47.5062L108.578 46.3657L113.088 43.2684L115.639 38.398C115.639 38.398 114.912 38.0521 114.093 39.2143L113.328 40.2467L112.596 37.4359L112.622 36.6034L114.874 37.3007C115.409 37.4034 115.805 37.3386 116.163 36.9224V36.7494H116.169Z" fill="#FFBE9D"/>
    <path d="M108.964 40.8575C108.996 40.8413 109.151 41.0629 109.295 41.4737C109.445 41.8792 109.557 42.4846 109.52 43.1548C109.477 43.8251 109.285 44.4035 109.087 44.7927C108.889 45.1819 108.707 45.3819 108.68 45.3603C108.605 45.317 109.172 44.4143 109.242 43.1386C109.333 41.8629 108.883 40.89 108.964 40.8575Z" fill="#E19E89"/>
    <path d="M109.001 40.917C108.996 40.8792 109.52 40.7548 110.397 40.5819L110.424 40.5764L110.456 40.5927C110.654 40.69 110.718 40.944 110.681 41.1386C110.659 41.3494 110.531 41.5332 110.44 41.6954C110.344 41.8629 110.285 42.0305 110.344 42.1873C110.397 42.3494 110.552 42.4954 110.723 42.6413L110.557 42.6359C110.916 42.3765 111.312 42.0954 111.531 41.6846C111.905 41.0792 111.478 40.4521 111.248 39.8737C111.183 39.7332 111.13 39.571 111.066 39.5008C111.007 39.4305 110.894 39.4197 110.766 39.4359C110.499 39.4791 110.247 39.517 110.007 39.5548C109.076 39.6954 108.493 39.7656 108.487 39.7278C108.482 39.69 109.049 39.5494 109.974 39.3602C110.215 39.3116 110.472 39.2629 110.734 39.2089C110.873 39.1872 111.082 39.171 111.242 39.3332C111.381 39.4899 111.408 39.6305 111.483 39.771C111.611 40.0629 111.766 40.344 111.884 40.69C112.012 41.0359 111.975 41.4846 111.777 41.8251C111.51 42.3116 111.076 42.6035 110.713 42.863L110.627 42.9224L110.547 42.8521C110.376 42.6954 110.183 42.5278 110.097 42.2738C110.007 42.0089 110.13 41.744 110.231 41.5765C110.344 41.3981 110.44 41.2575 110.461 41.1062C110.493 40.9494 110.456 40.8143 110.36 40.7656L110.418 40.7764C109.546 40.8954 109.006 40.9548 109.001 40.917Z" fill="#E19E89"/>
    <path d="M111.841 41.3278C111.862 41.317 111.9 41.4413 112.087 41.5007C112.264 41.571 112.579 41.5007 112.686 41.1602C112.815 40.8359 112.665 40.4197 112.462 39.9656C112.264 39.5115 112.066 38.971 111.841 38.4791C111.611 37.9818 111.017 38.0683 110.536 38.1223C110.044 38.171 109.605 38.2359 109.236 38.2953C108.498 38.4142 108.043 38.5169 108.032 38.4737C108.022 38.4413 108.46 38.2683 109.199 38.0953C109.568 38.0088 110.012 37.9223 110.509 37.8575C110.755 37.8304 111.017 37.7818 111.317 37.8142C111.616 37.825 111.948 38.0467 112.087 38.3386C112.349 38.8953 112.515 39.3926 112.702 39.8683C112.788 40.1007 112.884 40.3278 112.927 40.5656C112.975 40.798 112.959 41.0413 112.868 41.2359C112.783 41.4305 112.633 41.5818 112.467 41.6359C112.301 41.6899 112.151 41.6575 112.044 41.6035C111.83 41.4899 111.825 41.3224 111.841 41.3278Z" fill="#E19E89"/>
    <path d="M113.334 40.236C113.297 40.2468 113.157 39.8522 112.965 39.2035C112.863 38.8413 112.751 38.463 112.639 38.063C112.58 37.8522 112.521 37.6089 112.451 37.3981C112.382 37.1981 112.232 37.0305 112.029 36.9494C111.611 36.7927 111.13 36.9657 110.707 37.0792C110.306 37.1873 109.932 37.29 109.568 37.3873C108.915 37.5549 108.509 37.6359 108.498 37.5981C108.488 37.5603 108.878 37.4089 109.509 37.1927C109.862 37.0792 110.237 36.9548 110.633 36.8305C111.044 36.717 111.553 36.4846 112.13 36.69C112.409 36.7981 112.617 37.0467 112.703 37.3062C112.778 37.5603 112.826 37.7765 112.879 37.9981C112.976 38.4035 113.066 38.7927 113.152 39.1549C113.302 39.8089 113.371 40.2251 113.334 40.236Z" fill="#E19E89"/>
    <path d="M103.657 41.9441C103.657 41.9441 103.684 41.9062 103.737 41.8414C103.807 41.7603 103.893 41.6684 103.994 41.5549C104.246 41.2846 104.577 40.9279 104.989 40.4738C105.883 39.5224 107.124 38.1927 108.637 36.5765L108.648 36.5657L108.664 36.5602C109.761 36.1711 110.991 35.7332 112.302 35.2738L112.328 35.2629L112.355 35.2738C113.553 35.7062 114.848 36.1819 116.196 36.6684L116.249 36.69V36.7494C116.249 36.7981 116.249 36.8576 116.249 36.9116V36.944L116.228 36.9657C116.078 37.144 115.87 37.3062 115.618 37.3765C115.367 37.4467 115.105 37.4197 114.864 37.3711H114.859H114.853C114.35 37.2143 113.815 37.0521 113.275 36.8846C113.05 36.8143 112.826 36.744 112.601 36.6792L112.708 36.6035C112.697 36.8846 112.692 37.1603 112.681 37.4359L112.676 37.4143C112.927 38.3765 113.168 39.3116 113.404 40.2251L113.259 40.1981C113.591 39.7549 113.896 39.3224 114.233 38.9008C114.57 38.5062 115.099 38.1332 115.666 38.3278L115.741 38.3549L115.698 38.4359C114.741 40.2576 113.874 41.8954 113.136 43.3009L113.131 43.3117L113.12 43.3225C111.74 44.2576 110.617 45.0198 109.803 45.5657C109.429 45.8144 109.129 46.0144 108.899 46.1711C108.691 46.3063 108.579 46.3712 108.579 46.3712C108.579 46.3712 108.68 46.2901 108.883 46.1441C109.108 45.982 109.402 45.7765 109.771 45.5117C110.574 44.9549 111.692 44.1765 113.056 43.2198L113.034 43.2414C113.767 41.836 114.618 40.1873 115.57 38.3603L115.607 38.4684C115.409 38.3927 115.147 38.4305 114.939 38.5386C114.719 38.6468 114.527 38.8143 114.361 39.0089C114.04 39.4089 113.724 39.863 113.398 40.3008L113.297 40.436L113.254 40.2738C113.018 39.3657 112.772 38.4251 112.521 37.463L112.516 37.4522V37.4413C112.526 37.1657 112.532 36.89 112.542 36.6089L112.548 36.5008L112.655 36.5332C112.879 36.6035 113.104 36.6738 113.329 36.7386C113.869 36.9062 114.404 37.0738 114.907 37.2251H114.896C115.126 37.2684 115.367 37.29 115.575 37.2305C115.789 37.1765 115.966 37.0359 116.105 36.8738L116.083 36.9278C116.083 36.8738 116.083 36.8143 116.083 36.7657L116.137 36.8413C114.789 36.344 113.494 35.8738 112.296 35.4359H112.35C111.039 35.8954 109.809 36.3224 108.707 36.7062L108.734 36.69C107.204 38.29 105.947 39.6035 105.043 40.5495C104.615 40.9873 104.278 41.3387 104.021 41.6035C103.914 41.7116 103.823 41.7981 103.748 41.8738C103.689 41.9171 103.657 41.9495 103.657 41.9441Z" fill="#E19E89"/>
    <path d="M105.219 76.1607L104.968 57.4903L109.777 55.8687C111.291 55.5768 112.767 55.02 114.543 54.9443C117.886 57.6092 122.588 57.6741 125.99 55.0849L126.151 54.9606C126.611 55.0146 127.22 55.0741 127.985 55.166C128.034 55.1714 128.087 55.1768 128.135 55.1822C130.104 55.4308 131.89 56.1876 133.393 57.2957V57.2903L157.315 71.7175L171.362 60.9282L178.482 66.5661C178.482 66.5661 160.075 85.1608 158.289 85.6041C157.053 85.9122 144.777 79.1391 137.341 74.9445C137.641 79.4473 139.31 104.475 139.224 107.896H105.043L105.016 92.1122L105.021 87.8149L105.219 76.1607Z" fill="#FF962E"/>
    <path d="M136.881 64.2471C136.86 64.2471 136.849 64.5444 136.86 65.0742C136.876 65.6796 136.897 66.4309 136.924 67.3282C136.993 69.231 137.111 71.8526 137.266 74.7499C137.421 77.6472 137.576 80.2689 137.71 82.1662C137.78 83.0581 137.839 83.8095 137.887 84.4149C137.935 84.9446 137.972 85.2365 137.999 85.2365C138.02 85.2365 138.031 84.9392 138.02 84.4095C138.004 83.8041 137.983 83.0527 137.956 82.1608C137.887 80.2581 137.764 77.6364 137.614 74.7337C137.459 71.8364 137.298 69.2147 137.17 67.3174C137.1 66.4255 137.042 65.6742 136.993 65.0742C136.945 64.539 136.908 64.2471 136.881 64.2471Z" fill="#343542"/>
    <path d="M167.612 63.9985C167.532 64.0796 169.078 65.5607 171.047 67.3012C173.02 69.0418 174.673 70.3931 174.732 70.3175C174.796 70.2472 173.245 68.7769 171.271 67.0364C170.287 66.1661 169.383 65.3931 168.72 64.8418C168.062 64.2958 167.634 63.9715 167.612 63.9985Z" fill="#343542"/>
    <path d="M165.981 65.231C165.917 65.3067 167.484 66.7878 169.463 68.5608C170.453 69.4472 171.362 70.231 172.036 70.7932C172.705 71.35 173.138 71.6743 173.17 71.6419C173.202 71.604 172.828 71.2148 172.202 70.6094C171.571 70.004 170.688 69.1878 169.699 68.3013C168.709 67.4148 167.794 66.631 167.126 66.0743C166.441 65.5175 166.013 65.1932 165.981 65.231Z" fill="#343542"/>
    <path d="M101.464 42.0037C101.464 42.0037 87.7914 54.9389 83.4746 60.2038C81.5221 62.5876 81.0781 66.139 82.6454 68.7985C83.9025 70.9229 86.2294 72.1553 88.6686 71.9931L105.144 70.8796L106.385 57.0362L96.4303 60.1714L108.027 47.9172L101.464 42.0037Z" fill="#FF962E"/>
    <path d="M105.037 81.8365C104.962 81.8365 104.936 78.8689 104.984 75.2094C105.032 71.5499 105.133 68.5823 105.214 68.5823C105.289 68.5823 105.315 71.5499 105.262 75.2094C105.219 78.8689 105.117 81.8365 105.037 81.8365Z" fill="#343542"/>
    <path d="M100.94 55.4146C100.951 55.4254 100.806 55.6092 100.528 55.9335C100.212 56.2903 99.8112 56.7443 99.3191 57.2957C98.2867 58.447 96.8264 60.047 95.1574 61.8579L95.1895 61.8038C95.0237 62.3876 94.8311 62.9822 94.6065 63.5876C94.0983 64.9606 93.5045 66.2363 92.7877 67.2958C92.0549 68.3498 91.1776 69.1174 90.3645 69.6309C89.5515 70.1499 88.7972 70.3823 88.273 70.4742C88.0109 70.5228 87.8023 70.5444 87.6632 70.5444C87.5241 70.5498 87.4492 70.5444 87.4492 70.5336C87.4492 70.5066 87.7434 70.4904 88.2516 70.3661C88.7598 70.2417 89.4819 69.9823 90.2629 69.4579C91.0385 68.939 91.8837 68.1715 92.5791 67.1444C93.2638 66.1066 93.8415 64.8417 94.3443 63.4849C94.5637 62.8903 94.7562 62.2957 94.9221 61.7227L94.9328 61.6903L94.9542 61.6687C96.6285 59.8687 98.1155 58.2903 99.1854 57.1713C99.6989 56.6416 100.121 56.2038 100.453 55.8632C100.758 55.5659 100.924 55.4038 100.94 55.4146Z" fill="#343542"/>
    <path d="M94.3602 63.9498C94.4244 63.9281 94.7561 65.0957 94.5742 66.5606C94.403 68.0255 93.8039 69.0849 93.7451 69.0471C93.6648 69.0147 94.1302 67.939 94.296 66.5282C94.4726 65.1173 94.2746 63.9606 94.3602 63.9498Z" fill="#343542"/>
    <path d="M110.001 107.55C109.996 107.55 109.969 107.518 109.921 107.442C109.867 107.35 109.798 107.242 109.712 107.107C109.525 106.788 109.268 106.356 108.942 105.81C108.616 105.242 108.188 104.561 107.803 103.702C107.428 102.853 107.081 101.761 107.327 100.566C107.546 99.3718 108.247 98.2529 108.755 96.9934C109.006 96.3609 109.183 95.6799 109.199 94.9555C109.226 94.2312 109.129 93.4852 108.969 92.7339C108.659 91.2258 108.075 89.6798 107.926 87.9609C107.76 86.2527 108.006 84.4797 108.386 82.723C108.776 80.9662 109.258 79.2797 109.595 77.631C109.766 76.804 109.889 75.9878 109.974 75.1878C109.996 74.7824 110.028 74.3878 110.039 73.9932C110.033 73.5986 110.044 73.2094 110.028 72.8202C109.9 69.7229 109.193 66.9985 108.685 64.712C108.15 62.4255 107.771 60.5552 107.599 59.2471C107.508 58.593 107.46 58.0849 107.439 57.739C107.428 57.5822 107.423 57.4525 107.412 57.3444C107.407 57.2579 107.407 57.2092 107.412 57.2092C107.418 57.2092 107.428 57.2525 107.439 57.339C107.455 57.4417 107.471 57.5714 107.492 57.7282C107.53 58.0741 107.599 58.5768 107.701 59.2255C107.904 60.5228 108.311 62.3768 108.873 64.6579C109.407 66.9391 110.135 69.6688 110.279 72.804C110.295 73.1932 110.29 73.5932 110.295 73.9932C110.285 74.3932 110.253 74.7986 110.231 75.2094C110.151 76.0256 110.028 76.8527 109.857 77.6851C109.514 79.35 109.033 81.0365 108.648 82.7824C108.273 84.523 108.027 86.2635 108.188 87.9338C108.327 89.6041 108.899 91.1447 109.21 92.6798C109.37 93.4474 109.461 94.215 109.434 94.9663C109.413 95.7177 109.226 96.4366 108.958 97.0853C108.423 98.3718 107.728 99.4691 107.508 100.61C107.268 101.745 107.583 102.804 107.936 103.647C108.306 104.496 108.712 105.188 109.028 105.766C109.333 106.329 109.579 106.766 109.755 107.091C109.83 107.231 109.889 107.345 109.937 107.437C109.991 107.507 110.007 107.55 110.001 107.55Z" fill="#FAFAFA"/>
    <path d="M117.447 57.0309C117.452 57.0309 117.463 57.0741 117.485 57.1606C117.506 57.2633 117.533 57.3876 117.57 57.5444C117.645 57.8795 117.736 58.3822 117.838 59.0255C118.041 60.3174 118.271 62.2039 118.303 64.5445C118.346 66.885 118.169 69.6851 117.602 72.7283C117.062 75.7716 116.179 79.0635 115.89 82.6041C115.628 86.1501 116.131 89.5285 116.548 92.5772C116.987 95.6312 117.345 98.4042 117.362 100.75C117.378 103.096 117.094 104.993 116.714 106.248C116.671 106.404 116.634 106.556 116.602 106.696C116.554 106.831 116.506 106.961 116.468 107.08C116.383 107.312 116.308 107.507 116.249 107.68C116.19 107.826 116.147 107.945 116.11 108.048C116.078 108.129 116.056 108.172 116.051 108.166C116.046 108.166 116.056 108.118 116.083 108.037C116.115 107.934 116.153 107.815 116.195 107.664C116.249 107.496 116.313 107.291 116.388 107.058C116.425 106.939 116.468 106.81 116.511 106.675C116.543 106.534 116.575 106.383 116.613 106.226C116.955 104.972 117.206 103.085 117.169 100.761C117.126 98.4313 116.752 95.6745 116.302 92.6204C115.874 89.5717 115.356 86.1717 115.618 82.5879C115.912 79.0095 116.805 75.7175 117.356 72.6851C117.934 69.658 118.126 66.8796 118.11 64.5499C118.1 62.2201 117.902 60.339 117.736 59.0471C117.65 58.3985 117.576 57.9012 117.522 57.5606C117.501 57.4039 117.479 57.2795 117.463 57.1714C117.442 57.0795 117.442 57.0309 117.447 57.0309Z" fill="#FAFAFA"/>
    <path d="M130.007 107.572C130.002 107.572 129.975 107.534 129.933 107.458C129.879 107.366 129.815 107.253 129.735 107.112C129.638 106.961 129.553 106.761 129.462 106.518C129.419 106.399 129.36 106.269 129.317 106.128C129.28 105.983 129.243 105.831 129.2 105.664C129.05 105.01 128.964 104.177 129.029 103.226C129.077 102.269 129.248 101.199 129.446 100.02C129.644 98.8419 129.884 97.5554 129.922 96.1608C129.986 94.7662 129.687 93.2959 129.168 91.8094C128.67 90.3175 128.002 88.7824 127.681 87.0688C127.354 85.3499 127.499 83.5283 127.782 81.7229C128.06 79.9174 128.429 78.1715 128.526 76.4634C128.633 74.7606 128.435 73.1066 128.146 71.5606C127.552 68.4687 126.718 65.7281 126.434 63.3389C126.119 60.9551 126.268 58.9821 126.605 57.6794C126.926 56.3713 127.311 55.728 127.311 55.728C127.317 55.728 127.301 55.7767 127.274 55.8578C127.237 55.9551 127.188 56.0794 127.135 56.2307C127.017 56.5605 126.857 57.0524 126.712 57.701C126.413 58.9983 126.295 60.9497 126.632 63.3065C126.937 65.6741 127.782 68.3984 128.397 71.5065C128.692 73.0633 128.9 74.7336 128.799 76.4742C128.702 78.2093 128.333 79.9607 128.055 81.7607C127.777 83.5499 127.632 85.3391 127.948 87.0094C128.258 88.6851 128.916 90.2148 129.414 91.7175C129.665 92.4689 129.879 93.2203 130.007 93.9662C130.141 94.7122 130.184 95.4527 130.152 96.1608C130.104 97.5825 129.847 98.8744 129.638 100.047C129.424 101.22 129.243 102.285 129.178 103.231C129.103 104.172 129.173 104.988 129.301 105.637C129.585 106.945 130.056 107.55 130.007 107.572Z" fill="#FAFAFA"/>
    <path d="M134.528 59.0038C134.533 59.0038 134.549 59.0416 134.57 59.1227C134.597 59.22 134.629 59.3389 134.672 59.4849C134.768 59.8038 134.87 60.2795 134.988 60.9011C135.207 62.1444 135.335 63.9768 135.196 66.2309C135.068 68.485 134.64 71.1336 134.239 74.0742C133.854 77.0148 133.618 80.2743 133.645 83.7013C133.709 90.5608 134.56 96.7285 135.186 101.177C135.512 103.383 135.779 105.177 135.967 106.442C136.052 107.047 136.122 107.523 136.175 107.875C136.197 108.026 136.207 108.145 136.223 108.247C136.234 108.334 136.234 108.377 136.229 108.377C136.223 108.377 136.213 108.334 136.197 108.253C136.175 108.156 136.154 108.031 136.122 107.885C136.057 107.534 135.972 107.064 135.865 106.458C135.651 105.22 135.341 103.426 134.998 101.204C134.324 96.7609 133.436 90.5879 133.372 83.7013C133.345 80.2634 133.586 76.9877 133.987 74.0364C134.405 71.0904 134.854 68.4525 135.004 66.2147C135.169 63.9768 135.073 62.1552 134.886 60.9173C134.79 60.2957 134.704 59.82 134.624 59.4957C134.592 59.3497 134.57 59.2254 134.549 59.1281C134.528 59.0524 134.522 59.0092 134.528 59.0038Z" fill="#FAFAFA"/>
    <path d="M142.765 78.3283C142.744 78.3283 142.717 78.1337 142.685 77.7716C142.653 77.4148 142.616 76.8959 142.583 76.2526C142.514 74.9715 142.455 73.1985 142.45 71.2364C142.439 69.2742 142.487 67.5012 142.541 66.2201C142.567 65.5769 142.6 65.0579 142.632 64.7012C142.658 64.3444 142.685 64.1444 142.707 64.1444C142.728 64.1444 142.739 64.3444 142.744 64.7012C142.744 65.1228 142.744 65.6309 142.744 66.2201C142.739 67.5769 142.739 69.312 142.733 71.231C142.755 73.1499 142.771 74.8851 142.787 76.2418C142.792 76.831 142.797 77.3391 142.797 77.7608C142.792 78.1283 142.781 78.3229 142.765 78.3283Z" fill="#FAFAFA"/>
    <path d="M147.938 66.1552C147.959 66.1715 147.847 66.3336 147.692 66.6471C147.542 66.9607 147.376 67.4472 147.382 68.0742C147.382 68.6958 147.51 69.4526 147.596 70.285C147.697 71.1175 147.879 72.0256 148.002 72.9932C148.136 73.9661 148.125 74.9121 148.056 75.7554C147.991 76.604 147.794 77.3662 147.537 77.9608C147.275 78.5554 146.97 78.9824 146.745 79.2581C146.52 79.5392 146.376 79.6689 146.365 79.6581C146.312 79.6203 146.879 79.0419 147.355 77.8797C147.82 76.7175 147.959 74.9283 147.729 73.0202C147.612 72.0634 147.435 71.1499 147.344 70.3067C147.269 69.4634 147.157 68.7174 147.184 68.058C147.205 67.4039 147.408 66.8904 147.596 66.5823C147.783 66.285 147.927 66.1498 147.938 66.1552Z" fill="#FAFAFA"/>
    <path d="M90.311 71.0957C90.311 71.0741 90.5678 71.0795 91.0278 71.0795C91.4825 71.0741 92.1565 71.0957 92.9375 70.9011C93.7238 70.7174 94.5423 70.1606 95.2484 69.3444C95.9544 68.5281 96.6712 67.5498 97.4576 66.566C99.0195 64.5822 100.442 62.793 101.486 61.5065C101.983 60.9011 102.4 60.3929 102.732 59.9929C103.031 59.6416 103.203 59.4524 103.219 59.4632C103.235 59.474 103.09 59.6902 102.817 60.0632C102.507 60.4794 102.111 61.0038 101.641 61.6308C100.64 62.9497 99.2389 64.7551 97.6769 66.7443C96.8852 67.7335 96.1791 68.6957 95.4409 69.5228C94.7081 70.3498 93.8201 70.9336 92.9856 71.0957C92.1619 71.2741 91.4825 71.2201 91.0225 71.193C90.5624 71.1552 90.311 71.112 90.311 71.0957Z" fill="#FAFAFA"/>
    <path d="M103.898 45.2361C103.909 45.2415 103.861 45.3496 103.77 45.5496C103.668 45.7496 103.561 46.0685 103.315 46.4145C102.887 47.1496 102.095 48.1226 100.94 49.0956C99.7898 50.0848 98.2867 51.0794 96.6872 52.2524C95.0985 53.4199 93.3975 54.874 92.3704 56.9281C91.8516 57.9443 91.4236 59.0092 90.8031 59.9281C90.188 60.8579 89.3481 61.5498 88.5351 62.1281C87.7166 62.7065 86.8982 63.1876 86.1867 63.7011C85.47 64.2092 84.8494 64.7498 84.3894 65.3336C83.4373 66.4957 83.2661 67.7985 83.3945 68.6093C83.5282 69.4417 83.8759 69.8093 83.8384 69.8255C83.8331 69.8309 83.817 69.8093 83.7796 69.7606C83.7475 69.712 83.6887 69.6525 83.6352 69.5498C83.5122 69.3606 83.3731 69.0525 83.2875 68.6255C83.1217 67.7931 83.2661 66.4309 84.2343 65.2092C84.705 64.5984 85.3309 64.0363 86.053 63.5119C86.7698 62.9822 87.5829 62.4903 88.3906 61.9173C89.193 61.3443 89.9954 60.6687 90.5838 59.7768C91.1829 58.8849 91.6001 57.8362 92.1297 56.8038C93.1889 54.6902 94.9381 53.2037 96.5428 52.047C98.1583 50.874 99.6668 49.9064 100.822 48.9442C101.983 47.9983 102.785 47.0631 103.235 46.355C103.491 46.0199 103.614 45.7118 103.732 45.5226C103.823 45.3334 103.887 45.2361 103.898 45.2361Z" fill="#FAFAFA"/>
    <g opacity="0.3">
        <g opacity="0.3">
            <path opacity="0.3" d="M87.7271 70.4634C89.9416 70.4905 92.1562 69.5931 93.7396 68.0202C95.3176 66.4472 96.2483 64.2309 96.259 61.9877C96.259 61.7012 96.2162 61.3606 95.9595 61.2309C95.7295 61.1174 95.4406 61.2525 95.2908 61.4633C95.1411 61.6742 95.0983 61.939 95.0501 62.1931C94.3494 65.8796 91.7871 69.1445 88.3957 70.6742" fill="black"/>
        </g>
    </g>
    <g opacity="0.3">
        <g opacity="0.3">
            <path opacity="0.3" d="M153.485 70.0364C153.095 70.2742 152.891 70.7229 152.645 71.112C151.484 72.9553 149.19 73.7013 147.66 75.2472C146.488 76.431 145.547 77.831 145.547 79.5013L148.056 80.6527C150.233 77.2364 152.405 73.8148 154.582 70.3985C154.523 69.9391 153.876 69.7931 153.485 70.0364Z" fill="black"/>
        </g>
    </g>
    <path d="M36.119 197.87C36.119 197.87 27.3409 199.778 31.9038 210.594C36.4667 221.411 33.7439 224.357 30.5879 225.113L54.7128 224.962L56.8258 197.778L36.119 197.87Z" fill="#E0E0E0"/>
    <path d="M53.6738 225.103C51.962 225.108 50.3091 224.486 49.0253 223.346C47.0407 221.578 44.5908 218.286 44.104 212.567C43.077 200.465 36.1123 197.881 36.1123 197.881L56.8245 197.783C56.8245 197.783 63.5484 197.789 64.0887 208.529C64.661 219.784 80.1096 226.249 89.6472 224.994L53.6738 225.103Z" fill="#F5F5F5"/>
    <path d="M84.4964 179.167C84.4964 179.167 73.6482 177.854 72.4447 202.135C71.2411 226.411 53.0698 225.103 53.0698 225.103H89.2947C89.2947 225.103 96.8371 223.411 95.0772 206.254C94.339 199.065 107.108 179.167 107.108 179.167H84.4964Z" fill="#EBEBEB"/>
    <path d="M78.4567 181.913C77.3013 183.313 77.772 185.556 78.783 187.07C79.7887 188.583 81.372 189.605 82.9768 190.448C84.5816 191.292 86.2666 192.01 87.7002 193.113C89.9254 194.832 91.4072 197.383 92.3112 200.065C93.2152 202.746 93.5843 205.573 93.9481 208.378C93.9481 208.378 92.7605 188.227 89.2568 182.643C85.7477 177.059 80.6713 179.232 78.4567 181.913Z" fill="#E0E0E0"/>
    <path d="M106.38 225.097C106.38 225.097 95.6866 225.654 94.1942 213.092C92.7018 200.529 91.4608 179.924 84.4961 179.167L106.406 179.156C109.488 179.156 112.275 181.048 113.393 183.956C114.345 186.432 115.318 190.097 115.917 195.427C117.185 206.686 123.492 225.232 139.309 225.07L106.38 225.097Z" fill="#F5F5F5"/>
    <path d="M113.58 214.762C113.58 214.838 110.381 214.902 106.439 214.902C102.496 214.902 99.2974 214.838 99.2974 214.762C99.2974 214.686 102.496 214.621 106.439 214.621C110.381 214.621 113.58 214.681 113.58 214.762Z" fill="#343542"/>
    <path d="M117.222 215.632C117.196 215.594 117.131 214.719 117.099 213.508L117.222 213.632C116.58 213.638 115.874 213.643 115.12 213.654C115.088 213.686 115.382 213.389 115.259 213.513V213.519V213.53V213.546V213.584V213.654V213.8V214.086C115.259 214.276 115.259 214.454 115.254 214.638C115.248 214.989 115.243 215.319 115.238 215.638L115.115 215.513C116.318 215.54 117.185 215.605 117.222 215.632C117.26 215.659 116.441 215.724 115.12 215.757L115.002 215.762V215.638C114.997 215.319 114.992 214.984 114.986 214.638C114.986 214.459 114.986 214.276 114.981 214.086V213.8V213.654V213.584V213.546V213.53V213.519V213.513C114.858 213.638 115.152 213.34 115.12 213.373C115.874 213.378 116.58 213.384 117.222 213.394H117.345L117.34 213.513C117.313 214.843 117.254 215.676 117.222 215.632Z" fill="#343542"/>
    <path d="M116.859 219.416C116.859 219.492 113.66 219.557 109.717 219.557C105.775 219.557 102.576 219.492 102.576 219.416C102.576 219.341 105.775 219.276 109.717 219.276C113.665 219.276 116.859 219.341 116.859 219.416Z" fill="#343542"/>
    <path d="M120.507 220.292C120.48 220.254 120.416 219.378 120.384 218.167L120.507 218.292C119.865 218.297 119.159 218.303 118.405 218.313C118.373 218.346 118.667 218.049 118.544 218.173V218.178V218.189V218.205V218.243V218.313V218.459V218.746C118.544 218.935 118.544 219.113 118.538 219.297C118.533 219.649 118.528 219.978 118.522 220.297L118.399 220.173C119.603 220.2 120.464 220.259 120.507 220.292C120.544 220.319 119.726 220.384 118.405 220.416L118.287 220.422V220.297C118.282 219.978 118.276 219.643 118.271 219.297C118.271 219.119 118.271 218.935 118.266 218.746V218.459V218.313V218.243V218.205V218.189V218.178V218.173C118.143 218.297 118.437 218 118.405 218.032C119.159 218.038 119.865 218.043 120.507 218.054H120.63L120.625 218.173C120.598 219.503 120.534 220.33 120.507 220.292Z" fill="#343542"/>
    <path d="M110.825 203.032C110.825 203.108 107.626 203.173 103.684 203.173C99.7413 203.173 96.5425 203.108 96.5425 203.032C96.5425 202.956 99.7413 202.892 103.684 202.892C107.631 202.892 110.825 202.951 110.825 203.032Z" fill="#343542"/>
    <path d="M114.473 203.902C114.446 203.865 114.382 202.989 114.35 201.778L114.473 201.902C113.831 201.908 113.125 201.913 112.371 201.924C112.339 201.956 112.633 201.659 112.51 201.783V201.789V201.8V201.816V201.854V201.924V202.07V202.356C112.51 202.546 112.51 202.724 112.505 202.908C112.499 203.259 112.494 203.589 112.489 203.908L112.366 203.783C113.569 203.811 114.43 203.875 114.473 203.902C114.511 203.929 113.692 203.994 112.371 204.027L112.253 204.032V203.908C112.248 203.589 112.243 203.254 112.237 202.908C112.237 202.729 112.237 202.546 112.232 202.356V202.07V201.924V201.854V201.816V201.8V201.789V201.783C112.109 201.908 112.403 201.61 112.371 201.643C113.125 201.648 113.831 201.654 114.473 201.665H114.596V201.783C114.564 203.113 114.5 203.946 114.473 203.902Z" fill="#343542"/>
    <path d="M110.044 196.908C110.044 196.983 106.845 197.048 102.903 197.048C98.9605 197.048 95.7617 196.983 95.7617 196.908C95.7617 196.832 98.9605 196.767 102.903 196.767C106.845 196.767 110.044 196.832 110.044 196.908Z" fill="#343542"/>
    <path d="M113.687 197.783C113.66 197.746 113.596 196.87 113.564 195.659L113.687 195.783C113.045 195.789 112.339 195.794 111.584 195.805C111.552 195.837 111.846 195.54 111.723 195.665V195.67V195.681V195.697V195.735V195.805V195.951V196.237C111.723 196.427 111.723 196.605 111.718 196.789C111.713 197.14 111.707 197.47 111.702 197.789L111.579 197.665C112.783 197.692 113.649 197.751 113.687 197.783C113.724 197.81 112.906 197.875 111.584 197.908L111.467 197.913V197.789C111.461 197.47 111.456 197.135 111.451 196.789C111.451 196.61 111.451 196.427 111.445 196.237V195.951V195.805V195.735V195.697V195.681V195.67V195.665C111.322 195.789 111.616 195.492 111.584 195.524C112.339 195.529 113.045 195.535 113.687 195.546H113.81L113.804 195.665C113.778 196.994 113.719 197.821 113.687 197.783Z" fill="#343542"/>
    <path d="M109.006 191.302C109.006 191.378 105.807 191.443 101.865 191.443C97.9224 191.443 94.7236 191.378 94.7236 191.302C94.7236 191.227 97.9224 191.162 101.865 191.162C105.807 191.162 109.006 191.227 109.006 191.302Z" fill="#343542"/>
    <path d="M112.649 192.173C112.622 192.135 112.558 191.259 112.525 190.048L112.649 190.173C112.007 190.178 111.301 190.183 110.546 190.194C110.514 190.227 110.808 189.929 110.685 190.054V190.059V190.07V190.086V190.124V190.194V190.34V190.627C110.685 190.816 110.685 190.994 110.68 191.178C110.675 191.529 110.669 191.859 110.664 192.178L110.541 192.054C111.744 192.081 112.606 192.146 112.649 192.173C112.686 192.2 111.868 192.265 110.546 192.297L110.429 192.302V192.178C110.423 191.859 110.418 191.524 110.413 191.178C110.413 191 110.413 190.816 110.407 190.627V190.34V190.194V190.124V190.086V190.07V190.059V190.054C110.284 190.178 110.578 189.881 110.546 189.913C111.301 189.919 112.007 189.924 112.649 189.935H112.772L112.766 190.054C112.739 191.383 112.675 192.216 112.649 192.173Z" fill="#343542"/>
    <path d="M107.535 186.162C107.535 186.237 104.337 186.302 100.394 186.302C96.4518 186.302 93.2529 186.237 93.2529 186.162C93.2529 186.086 96.4518 186.021 100.394 186.021C104.337 186.021 107.535 186.081 107.535 186.162Z" fill="#343542"/>
    <path d="M111.178 187.032C111.151 186.994 111.087 186.118 111.055 184.908L111.178 185.032C110.536 185.037 109.83 185.043 109.076 185.054C109.043 185.086 109.338 184.789 109.215 184.913V184.918V184.929V184.945V184.983V185.054V185.2V185.486C109.215 185.675 109.215 185.854 109.209 186.037C109.204 186.389 109.199 186.718 109.193 187.037L109.07 186.913C110.274 186.94 111.14 187.005 111.178 187.032C111.215 187.059 110.397 187.124 109.076 187.156L108.958 187.162V187.037C108.953 186.718 108.947 186.383 108.942 186.037C108.942 185.859 108.942 185.675 108.936 185.486V185.2V185.054V184.983V184.945V184.929V184.918V184.913C108.813 185.037 109.108 184.74 109.076 184.773C109.83 184.778 110.536 184.783 111.178 184.794H111.301L111.295 184.913C111.269 186.243 111.21 187.07 111.178 187.032Z" fill="#343542"/>
    <path d="M105.058 181.848C105.058 181.924 101.859 181.989 97.9171 181.989C93.9747 181.989 90.7759 181.924 90.7759 181.848C90.7759 181.772 93.9747 181.708 97.9171 181.708C101.859 181.708 105.058 181.772 105.058 181.848Z" fill="#343542"/>
    <path d="M108.701 182.724C108.674 182.686 108.61 181.81 108.578 180.6L108.701 180.724C108.059 180.729 107.353 180.735 106.599 180.745C106.567 180.778 106.861 180.481 106.738 180.605V180.61V180.621V180.637V180.675V180.745V180.891V181.178C106.738 181.367 106.738 181.545 106.733 181.729C106.727 182.081 106.722 182.41 106.717 182.729L106.594 182.605C107.797 182.632 108.664 182.691 108.701 182.724C108.739 182.751 107.92 182.816 106.599 182.848H106.481V182.724C106.476 182.405 106.471 182.07 106.465 181.724C106.465 181.545 106.465 181.362 106.46 181.172V180.886V180.74V180.67V180.632V180.616V180.605V180.6C106.337 180.724 106.631 180.427 106.599 180.459C107.353 180.464 108.059 180.47 108.701 180.481H108.824L108.819 180.6C108.792 181.935 108.733 182.762 108.701 182.724Z" fill="#343542"/>
    <path d="M110.039 192.865C109.98 192.816 110.413 192.183 111.001 191.454C111.119 191.308 111.237 191.173 111.36 191.027L111.451 190.919L111.547 191.01C112.034 191.465 112.36 191.816 112.323 191.859C112.285 191.908 111.889 191.632 111.376 191.21L111.563 191.194C111.445 191.346 111.333 191.486 111.215 191.632C110.627 192.362 110.097 192.913 110.039 192.865Z" fill="#FF962E"/>
    <path d="M111.141 198.216C111.082 198.167 111.515 197.535 112.103 196.805C112.221 196.659 112.339 196.524 112.462 196.378L112.553 196.27L112.649 196.362C113.136 196.816 113.462 197.167 113.425 197.21C113.387 197.259 112.991 196.983 112.478 196.562L112.665 196.546C112.547 196.697 112.435 196.837 112.317 196.983C111.729 197.713 111.199 198.265 111.141 198.216Z" fill="#FF962E"/>
    <path d="M114.275 216.513C114.217 216.465 114.65 215.832 115.238 215.103C115.356 214.957 115.474 214.821 115.597 214.675L115.688 214.567L115.784 214.659C116.271 215.113 116.597 215.465 116.559 215.508C116.522 215.557 116.126 215.281 115.613 214.859L115.8 214.843C115.682 214.994 115.57 215.135 115.452 215.281C114.858 216.011 114.334 216.562 114.275 216.513Z" fill="#FF962E"/>
    <path d="M111.927 204.378C111.868 204.329 112.301 203.697 112.89 202.967C113.007 202.821 113.125 202.686 113.248 202.54L113.339 202.432L113.435 202.524C113.922 202.978 114.248 203.329 114.211 203.373C114.173 203.421 113.778 203.146 113.264 202.724L113.451 202.708C113.334 202.859 113.221 203 113.104 203.146C112.515 203.875 111.991 204.427 111.927 204.378Z" fill="#FF962E"/>
    <path d="M112.2 208.897C112.2 208.973 109.001 209.038 105.059 209.038C101.116 209.038 97.9175 208.973 97.9175 208.897C97.9175 208.821 101.116 208.756 105.059 208.756C109.006 208.756 112.2 208.816 112.2 208.897Z" fill="#343542"/>
    <path d="M115.848 209.767C115.821 209.73 115.757 208.854 115.725 207.643L115.848 207.767C115.206 207.773 114.5 207.778 113.746 207.789C113.714 207.821 114.008 207.524 113.885 207.648V207.654V207.665V207.681V207.719V207.789V207.935V208.221C113.885 208.411 113.885 208.589 113.88 208.773C113.874 209.124 113.869 209.454 113.864 209.773L113.741 209.648C114.944 209.675 115.805 209.74 115.848 209.767C115.886 209.794 115.067 209.859 113.746 209.892L113.628 209.897V209.773C113.623 209.454 113.618 209.119 113.612 208.773C113.612 208.594 113.612 208.411 113.607 208.221V207.935V207.789V207.719V207.681V207.665V207.654V207.648C113.484 207.773 113.778 207.475 113.746 207.508C114.5 207.513 115.206 207.519 115.848 207.529H115.971V207.648C115.939 208.978 115.875 209.811 115.848 209.767Z" fill="#343542"/>
    <path d="M113.007 210.492C112.948 210.443 113.382 209.811 113.97 209.081C114.088 208.935 114.206 208.8 114.329 208.654L114.42 208.546L114.516 208.638C115.003 209.092 115.329 209.443 115.291 209.486C115.254 209.535 114.858 209.259 114.345 208.838L114.532 208.821C114.414 208.973 114.302 209.113 114.184 209.259C113.596 209.989 113.066 210.54 113.007 210.492Z" fill="#FF962E"/>
    <path d="M52.8447 218.032C52.8447 217.957 55.744 217.892 59.3226 217.892C62.9012 217.892 65.8005 217.957 65.8005 218.032C65.8005 218.108 62.9012 218.173 59.3226 218.173C55.744 218.173 52.8447 218.108 52.8447 218.032Z" fill="#343542"/>
    <path d="M49.539 217.238C49.5658 217.276 49.63 218.07 49.6621 219.167L49.539 219.043C50.1275 219.038 50.764 219.032 51.4487 219.022C51.4808 218.989 51.1866 219.286 51.3096 219.162V219.157V219.146V219.13V219.097V219.032V218.903V218.643C51.3096 218.476 51.3096 218.308 51.315 218.146C51.3203 217.832 51.3257 217.53 51.331 217.238L51.4541 217.362C50.3628 217.33 49.5765 217.27 49.539 217.238C49.5016 217.211 50.2398 217.146 51.4487 217.113L51.5664 217.108V217.232C51.5718 217.524 51.5771 217.827 51.5825 218.14C51.5825 218.303 51.5825 218.47 51.5878 218.638V218.897V219.027V219.092V219.124V219.14V219.151V219.157C51.7108 219.032 51.4166 219.33 51.4487 219.297C50.7694 219.292 50.1275 219.286 49.539 219.276H49.416L49.4214 219.157C49.4481 217.951 49.507 217.2 49.539 217.238Z" fill="#343542"/>
    <path d="M52.112 216.584C52.1708 216.632 51.7857 217.211 51.2454 217.87C51.1384 218 51.0314 218.124 50.9191 218.259L50.8281 218.367L50.7319 218.276C50.2879 217.865 49.999 217.54 50.0365 217.492C50.0739 217.443 50.4377 217.692 50.903 218.07L50.7158 218.086C50.8228 217.946 50.9244 217.822 51.0314 217.686C51.5717 217.032 52.0531 216.535 52.112 216.584Z" fill="#FF962E"/>
    <path d="M50.2666 214.189C50.2666 214.113 53.1659 214.048 56.7445 214.048C60.3231 214.048 63.2224 214.113 63.2224 214.189C63.2224 214.265 60.3231 214.33 56.7445 214.33C53.1712 214.33 50.2666 214.265 50.2666 214.189Z" fill="#343542"/>
    <path d="M46.9609 213.394C46.9877 213.432 47.0519 214.227 47.084 215.324L46.9609 215.2C47.5493 215.194 48.1859 215.189 48.8706 215.178C48.9027 215.146 48.6085 215.443 48.7315 215.319V215.313V215.302V215.286V215.254V215.189V215.059V214.8C48.7315 214.632 48.7315 214.465 48.7369 214.302C48.7422 213.989 48.7476 213.686 48.7529 213.394L48.8759 213.519C47.7847 213.486 46.9984 213.427 46.9609 213.394C46.9235 213.367 47.6617 213.302 48.8706 213.27L48.9883 213.265V213.389C48.9936 213.681 48.999 213.984 49.0043 214.297C49.0043 214.459 49.0043 214.627 49.0097 214.794V215.054V215.184V215.248V215.281V215.297V215.308V215.313C49.1327 215.189 48.8385 215.486 48.8706 215.454C48.1912 215.448 47.5493 215.443 46.9609 215.432H46.8379L46.8432 215.313C46.87 214.108 46.9288 213.357 46.9609 213.394Z" fill="#343542"/>
    <path d="M49.5392 212.74C49.598 212.789 49.2129 213.367 48.6726 214.027C48.5656 214.157 48.4587 214.281 48.3463 214.416L48.2554 214.524L48.1591 214.432C47.7151 214.021 47.4263 213.697 47.4637 213.648C47.5011 213.6 47.8649 213.848 48.3303 214.227L48.1431 214.248C48.25 214.108 48.3517 213.984 48.4587 213.848C48.9936 213.189 49.4804 212.692 49.5392 212.74Z" fill="#FF962E"/>
    <path d="M49.3892 209.848C49.3892 209.773 52.2884 209.708 55.867 209.708C59.4457 209.708 62.3449 209.773 62.3449 209.848C62.3449 209.924 59.4457 209.989 55.867 209.989C52.2884 209.989 49.3892 209.924 49.3892 209.848Z" fill="#343542"/>
    <path d="M46.0835 209.054C46.1102 209.092 46.1744 209.886 46.2065 210.984L46.0835 210.859C46.6719 210.854 47.3085 210.848 47.9932 210.838C48.0253 210.805 47.731 211.102 47.8541 210.978V210.973V210.962V210.946V210.913V210.848V210.719V210.459C47.8541 210.292 47.8541 210.124 47.8594 209.962C47.8648 209.648 47.8701 209.346 47.8755 209.054L47.9985 209.178C46.9073 209.146 46.1209 209.086 46.0835 209.054C46.046 209.027 46.7842 208.962 47.9932 208.929L48.1108 208.924V209.048C48.1162 209.34 48.1215 209.643 48.1269 209.957C48.1269 210.119 48.1269 210.286 48.1322 210.454V210.713V210.843V210.908V210.94V210.957V210.967V210.973C48.2553 210.848 47.9611 211.146 47.9932 211.113C47.3138 211.108 46.6719 211.102 46.0835 211.092H45.9604L45.9658 210.973C45.9925 209.767 46.0514 209.016 46.0835 209.054Z" fill="#343542"/>
    <path d="M48.6564 208.4C48.7152 208.448 48.3301 209.027 47.7898 209.686C47.6828 209.816 47.5758 209.94 47.4635 210.075L47.3726 210.184L47.2763 210.092C46.8323 209.681 46.5434 209.357 46.5809 209.308C46.6183 209.259 46.9821 209.508 47.4475 209.886L47.2602 209.903C47.3672 209.762 47.4689 209.638 47.5758 209.502C48.1161 208.848 48.5975 208.351 48.6564 208.4Z" fill="#FF962E"/>
    <path d="M48.437 205.411C48.437 205.335 51.3363 205.27 54.9149 205.27C58.4935 205.27 61.3928 205.335 61.3928 205.411C61.3928 205.486 58.4935 205.551 54.9149 205.551C51.3416 205.551 48.437 205.486 48.437 205.411Z" fill="#343542"/>
    <path d="M45.1313 204.616C45.1581 204.654 45.2223 205.448 45.2544 206.546L45.1313 206.421C45.7197 206.416 46.3563 206.41 47.041 206.4C47.0731 206.367 46.7789 206.665 46.9019 206.54V206.535V206.524V206.508V206.475V206.41V206.281V206.021C46.9019 205.854 46.9019 205.686 46.9073 205.524C46.9126 205.21 46.918 204.908 46.9233 204.616L47.0463 204.74C45.9551 204.708 45.1688 204.643 45.1313 204.616C45.0939 204.589 45.8321 204.524 47.041 204.492L47.1587 204.486V204.61C47.164 204.902 47.1694 205.205 47.1747 205.519C47.1747 205.681 47.1747 205.848 47.1801 206.016V206.275V206.405V206.47V206.502V206.519V206.529V206.535C47.3031 206.41 47.0089 206.708 47.041 206.675C46.3617 206.67 45.7197 206.665 45.1313 206.654H45.0083L45.0137 206.535C45.0404 205.324 45.1046 204.578 45.1313 204.616Z" fill="#343542"/>
    <path d="M47.7096 203.962C47.7685 204.01 47.3833 204.589 46.843 205.248C46.7361 205.378 46.6291 205.502 46.5167 205.637L46.4258 205.746L46.3295 205.654C45.8855 205.243 45.5967 204.919 45.6341 204.87C45.6716 204.821 46.0353 205.07 46.5007 205.448L46.3135 205.465C46.4205 205.324 46.5221 205.2 46.6291 205.065C47.164 204.405 47.6508 203.908 47.7096 203.962Z" fill="#FF962E"/>
    <path d="M45.9868 201.027C45.9868 200.951 48.8861 200.886 52.4647 200.886C56.0433 200.886 58.9426 200.951 58.9426 201.027C58.9426 201.102 56.0433 201.167 52.4647 201.167C48.8861 201.167 45.9868 201.108 45.9868 201.027Z" fill="#343542"/>
    <path d="M42.6758 200.237C42.7025 200.275 42.7667 201.07 42.7988 202.167L42.6758 202.043C43.2642 202.037 43.9007 202.032 44.5854 202.021C44.6175 201.989 44.3233 202.286 44.4464 202.162V202.156V202.146V202.129V202.097V202.032V201.902V201.643C44.4464 201.475 44.4464 201.308 44.4517 201.146C44.4571 200.832 44.4624 200.529 44.4678 200.237L44.5908 200.362C43.4995 200.329 42.7186 200.264 42.6758 200.237C42.6383 200.21 43.3765 200.146 44.5854 200.113L44.7031 200.108V200.232C44.7085 200.524 44.7138 200.827 44.7192 201.14C44.7192 201.302 44.7192 201.47 44.7245 201.637V201.897V202.027V202.092V202.124V202.14V202.151V202.156C44.8475 202.032 44.5533 202.329 44.5854 202.297C43.9061 202.292 43.2642 202.286 42.6758 202.275H42.5527L42.5581 202.156C42.5848 200.946 42.649 200.194 42.6758 200.237Z" fill="#343542"/>
    <path d="M45.254 199.578C45.3129 199.627 44.9277 200.205 44.3875 200.865C44.2805 200.994 44.1735 201.119 44.0612 201.254L43.9702 201.362L43.8739 201.27C43.43 200.859 43.1411 200.535 43.1785 200.486C43.216 200.437 43.5797 200.686 44.0451 201.065L43.8579 201.081C43.9649 200.94 44.0665 200.816 44.1735 200.681C44.7084 200.027 45.1952 199.529 45.254 199.578Z" fill="#FF962E"/>
    <path d="M84.1377 179.146C84.1377 179.14 84.1751 179.135 84.25 179.135C84.341 179.129 84.448 179.129 84.5817 179.124C84.8919 179.119 85.3199 179.113 85.8655 179.102C87.0049 179.097 88.6257 179.086 90.6477 179.07C94.7452 179.064 100.453 179.059 107.006 179.054H106.984C108.113 178.886 109.306 179.146 110.354 179.702C111.403 180.259 112.323 181.108 113.013 182.129C114.206 183.881 114.741 185.913 115.11 187.832C115.495 189.762 115.762 191.638 115.992 193.427C116.463 197 116.752 200.243 117.324 202.897C117.918 205.551 118.747 207.605 119.405 208.967C119.731 209.654 120.026 210.167 120.218 210.513C120.314 210.676 120.389 210.805 120.448 210.908C120.496 211 120.523 211.043 120.518 211.048C120.512 211.048 120.48 211.011 120.421 210.924C120.357 210.827 120.272 210.703 120.165 210.546C119.956 210.205 119.646 209.703 119.303 209.016C118.613 207.659 117.752 205.605 117.132 202.94C116.533 200.265 116.222 197.027 115.735 193.459C115.5 191.675 115.222 189.805 114.837 187.886C114.462 185.978 113.933 183.989 112.777 182.286C112.114 181.297 111.226 180.486 110.22 179.946C109.215 179.41 108.081 179.167 107.016 179.318H107.006H106.995C100.442 179.286 94.7291 179.254 90.637 179.232C88.615 179.21 86.9942 179.194 85.8548 179.183C85.3092 179.173 84.8812 179.162 84.571 179.156C84.4373 179.151 84.3303 179.146 84.2393 179.146C84.1751 179.151 84.1377 179.146 84.1377 179.146Z" fill="#343542"/>
    <path d="M30.5869 225.114C30.5869 225.114 30.7474 225.087 31.0416 224.995C31.3358 224.897 31.7798 224.73 32.2719 224.378C32.764 224.027 33.3043 223.465 33.6841 222.654C34.0692 221.849 34.2672 220.811 34.2458 219.649C34.2244 218.486 34.0692 217.184 33.7055 215.816C33.3471 214.443 32.7319 213.022 32.1061 211.481C31.7958 210.708 31.4963 209.903 31.2288 209.054C30.956 208.205 30.7206 207.313 30.5923 206.373C30.3301 204.503 30.5495 202.378 31.6514 200.551C32.2024 199.654 32.9833 198.838 33.9837 198.346C34.2404 198.243 34.4865 198.108 34.7646 198.048C34.8984 198.011 35.0321 197.967 35.1712 197.94L35.5938 197.886C36.1661 197.8 36.7652 197.957 37.2681 198.238C38.2951 198.794 39.1028 199.681 39.8303 200.621C40.5525 201.567 41.1837 202.611 41.7561 203.703C42.3231 204.8 42.8259 205.951 43.2378 207.162C43.4411 207.767 43.6176 208.389 43.7406 209.032C43.8583 209.681 43.9118 210.324 44.0081 210.973C44.1846 212.27 44.4093 213.578 44.7302 214.881C45.0512 216.184 45.4631 217.486 45.9284 218.784C46.1638 219.438 46.3885 220.081 46.7629 220.659C47.1213 221.243 47.592 221.757 48.1056 222.222C48.6191 222.687 49.1968 223.092 49.8013 223.454C50.4111 223.811 51.0316 224.162 51.6895 224.405C52.3475 224.654 53.0482 224.805 53.7597 224.822C54.4604 224.816 55.204 224.741 55.9261 224.681C57.3758 224.551 58.8361 224.308 60.2162 223.784C61.6016 223.27 62.9068 222.508 64.1265 221.622C65.3728 220.762 66.3999 219.622 67.2932 218.368C69.0798 215.854 70.3422 212.93 71.1874 209.87C71.5405 208.492 71.8293 207.103 72.0058 205.703C72.177 204.308 72.2573 202.903 72.3749 201.508C72.6103 198.724 72.8778 195.967 73.418 193.302C73.6855 191.967 74.0225 190.659 74.4023 189.383C74.7874 188.113 75.1672 186.838 75.7182 185.638C76.2638 184.443 76.9432 183.319 77.7723 182.335C78.6014 181.351 79.5482 180.481 80.7037 179.908L80.6876 179.913C81.6451 179.362 82.731 179.005 83.8276 179.01C84.9242 179.01 86.0101 179.421 86.8178 180.14C87.6362 180.848 88.2033 181.778 88.6472 182.713C89.0912 183.659 89.4282 184.632 89.7438 185.594C91.0437 189.438 91.7979 193.254 92.3008 196.865C92.8036 200.481 93.055 203.903 93.2797 207.076C93.5043 210.243 93.836 213.173 94.633 215.703C95.4086 218.232 96.6069 220.346 98.0244 221.843C99.4366 223.351 101.031 224.216 102.379 224.654C103.737 225.103 104.855 225.124 105.594 225.087C105.963 225.054 106.241 225.022 106.428 224.984C106.615 224.951 106.712 224.941 106.712 224.941C106.712 224.941 106.621 224.968 106.433 225.005C106.246 225.049 105.968 225.087 105.599 225.13C104.861 225.184 103.732 225.173 102.357 224.735C100.993 224.308 99.3778 223.443 97.9388 221.93C96.4945 220.427 95.2749 218.297 94.4832 215.751C93.6702 213.205 93.3278 210.259 93.0924 207.092C92.8571 203.919 92.595 200.503 92.0868 196.897C91.5733 193.297 90.819 189.502 89.5138 185.675C89.1929 184.719 88.8612 183.751 88.4226 182.827C87.9839 181.908 87.433 181.01 86.652 180.335C85.8817 179.659 84.86 179.27 83.8223 179.27C82.7792 179.259 81.7414 179.605 80.8106 180.14L80.7946 180.146C79.7194 180.681 78.7726 181.546 77.9649 182.502C77.1518 183.465 76.4885 184.573 75.9482 185.746C75.4079 186.924 75.0335 188.183 74.6484 189.454C74.2686 190.729 73.9369 192.027 73.6694 193.351C73.1345 196 72.8671 198.746 72.6317 201.524C72.514 202.913 72.4338 204.319 72.2626 205.735C72.0807 207.146 71.7972 208.546 71.4388 209.94C70.5883 213.027 69.3152 215.978 67.5018 218.53C66.5978 219.795 65.5387 220.973 64.2709 221.843C63.0352 222.741 61.7086 223.519 60.2911 224.038C58.8789 224.573 57.3918 224.822 55.9315 224.951C55.1933 225.011 54.4818 225.087 53.7383 225.092C52.9947 225.076 52.2673 224.919 51.5826 224.66C50.8925 224.405 50.2667 224.049 49.6515 223.681C49.0363 223.308 48.4479 222.897 47.9183 222.416C47.3888 221.941 46.9073 221.4 46.5329 220.795C46.1424 220.195 45.907 219.514 45.677 218.87C45.2116 217.568 44.7998 216.259 44.4788 214.941C44.1579 213.627 43.9332 212.308 43.7567 211.005C43.5855 208.373 42.644 205.989 41.5421 203.811C40.9751 202.724 40.3546 201.692 39.6431 200.757C38.9317 199.832 38.1346 198.962 37.1557 198.432C36.1875 197.838 35.0107 198.108 34.0639 198.54C33.101 199.005 32.3468 199.794 31.8065 200.665C30.7313 202.432 30.5013 204.519 30.7581 206.357C30.8811 207.281 31.1111 208.167 31.3786 209.011C31.6407 209.854 31.9349 210.659 32.2398 211.432C32.855 212.973 33.4648 214.4 33.8232 215.789C34.1816 217.173 34.3367 218.481 34.3474 219.654C34.3581 220.832 34.1495 221.881 33.7483 222.697C33.3578 223.519 32.8015 224.081 32.2987 224.432C31.7905 224.784 31.3411 224.946 31.0416 225.032C30.7474 225.103 30.5869 225.114 30.5869 225.114Z" fill="#343542"/>
    <path d="M68.1489 217.335C68.1435 217.34 68.1114 217.319 68.0526 217.27C67.9938 217.222 67.8975 217.151 67.7851 217.054C67.5551 216.859 67.2288 216.551 66.833 216.13C66.4425 215.708 65.9771 215.167 65.5064 214.492C65.041 213.816 64.5435 213.005 64.1905 212.021C63.8642 211.021 63.6502 209.908 63.4576 208.703C63.2704 207.497 63.1206 206.205 62.8853 204.865C62.6445 203.53 62.2915 202.135 61.6068 200.838C61.2698 200.189 60.8472 199.573 60.323 199.038C60.0609 198.762 59.7881 198.508 59.4618 198.362C59.1355 198.2 58.7557 198.119 58.3812 198.038C56.862 197.767 55.3268 197.789 53.8611 197.805C52.3901 197.827 50.9726 197.908 49.6139 197.919C46.9125 197.94 44.4786 197.962 42.4192 197.984C40.3918 197.989 38.7443 198 37.5674 198C37.0165 197.994 36.5778 197.994 36.2515 197.989C35.952 197.984 35.7915 197.978 35.7915 197.967C35.7915 197.957 35.952 197.946 36.2515 197.935C36.5778 197.924 37.0165 197.908 37.5674 197.892C38.7389 197.865 40.3865 197.827 42.4138 197.784C44.4679 197.746 46.9018 197.708 49.6032 197.659C50.9565 197.643 52.3741 197.557 53.8504 197.529C55.3268 197.508 56.862 197.486 58.424 197.762C58.8145 197.843 59.205 197.929 59.5687 198.108C59.756 198.178 59.9271 198.319 60.0876 198.438C60.232 198.573 60.3818 198.697 60.5102 198.843C61.0558 199.4 61.4945 200.043 61.8368 200.713C62.5376 202.054 62.896 203.475 63.1313 204.827C63.356 206.178 63.5004 207.476 63.6769 208.676C63.8588 209.87 64.0674 210.989 64.367 211.962C64.6986 212.93 65.1747 213.735 65.624 214.411C66.0787 215.086 66.5281 215.632 66.9025 216.059C67.2823 216.492 67.5926 216.811 67.8119 217.016C68.0365 217.222 68.1542 217.33 68.1489 217.335Z" fill="#343542"/>
    <path d="M180.558 53.912C180.568 52.6201 181.339 51.3606 182.478 50.7769C182.665 50.6796 182.863 50.6039 183.072 50.6093C183.28 50.6201 183.494 50.7336 183.564 50.9282C183.644 51.139 183.543 51.3769 183.393 51.539C183.243 51.7012 183.045 51.8147 182.874 51.9552C182.339 52.3931 182.077 53.1444 182.216 53.8255" fill="#B78876"/>
    <path d="M170.474 30.7278C165.387 31.1278 161.589 35.5981 161.937 40.7387C162.424 48.0361 162.274 57.9497 158.824 63.9822C152.854 74.4255 143.899 76.2796 144.59 97.1608C145.28 118.042 146.194 120.253 142.065 125.648C137.93 131.037 128.975 128.253 125.076 140.55C121.171 152.848 123.926 214.335 117.726 220.827C117.726 220.827 112.676 225.697 107.391 225.238H137.058C139.577 225.238 142.049 224.313 143.841 222.524C145.13 221.232 146.194 219.405 146.194 216.886C146.194 212.654 147.574 152.848 149.869 147.745C152.164 142.642 164.103 137.431 165.944 125.648C167.778 113.869 167.126 94.8095 167.115 91.3824C167.099 88.1175 167.741 81.7715 173.914 74.3498C183.243 63.1443 181.964 50.8847 182.194 46.7117C182.424 42.5333 180.579 29.9386 180.579 29.9386L170.474 30.7278Z" fill="#EBEBEB"/>
    <path d="M162.739 39.1765C163.028 38.1225 163.959 37.2738 165.023 37.0954C166.093 36.917 167.243 37.4089 167.853 38.3116C168.736 39.6144 168.527 41.5603 169.715 42.582C170.474 43.236 171.56 43.2793 172.56 43.263C175.69 43.2036 178.814 42.809 181.863 42.0955L181.178 32.2305C181.178 32.2305 166.329 30.9116 164.526 33.3819C162.729 35.8414 162.739 39.1765 162.739 39.1765Z" fill="#E0E0E0"/>
    <path d="M162.039 44.2415C162.034 42.0144 162.536 40.0523 163.055 37.8847C163.681 35.2738 165.484 33.3603 167.666 33.0468C170.432 32.6468 173.165 36.6847 173.165 36.6847C173.165 36.6847 183.912 35.1063 189.031 34.7225C188.657 33.3765 185.971 29.9062 184.04 29.4792C182.109 29.0576 180.108 29.1062 178.135 29.1657C174.604 29.263 170.956 29.3873 167.768 30.9224C164.58 32.4576 161.29 34.7225 162.071 42.9928" fill="#F5F5F5"/>
    <path d="M182.959 29.7279C182.959 29.7387 182.772 29.7603 182.424 29.7927C182.018 29.8252 181.531 29.863 180.969 29.9062C179.739 29.9981 178.038 30.1279 176.166 30.3225C174.294 30.5225 172.609 30.7711 171.394 30.9819C170.838 31.0846 170.357 31.1711 169.955 31.2468C169.618 31.3117 169.426 31.3441 169.426 31.3333C169.426 31.3225 169.608 31.2684 169.945 31.1873C170.282 31.1009 170.768 30.9927 171.373 30.8684C172.587 30.6252 174.272 30.3549 176.15 30.1549C178.027 29.9549 179.728 29.8468 180.964 29.7873C181.531 29.7657 182.018 29.7441 182.424 29.7279C182.767 29.7116 182.959 29.7116 182.959 29.7279Z" fill="#343542"/>
    <path d="M149.65 148.405C149.661 148.48 145.098 149.226 139.465 150.07C133.827 150.913 129.248 151.534 129.237 151.459C129.227 151.383 133.784 150.637 139.428 149.788C145.055 148.945 149.639 148.324 149.65 148.405Z" fill="#343542"/>
    <path d="M150.72 146.151C150.72 146.226 146.531 146.318 141.364 146.351C136.197 146.383 132.008 146.345 132.003 146.269C131.998 146.194 136.191 146.102 141.359 146.069C146.531 146.037 150.72 146.069 150.72 146.151Z" fill="#343542"/>
    <path d="M108.702 225.303C108.702 225.303 108.873 225.276 109.215 225.227C109.558 225.195 110.055 225.092 110.702 224.919C111.986 224.562 113.837 223.8 115.902 222.303C116.415 221.93 116.945 221.514 117.474 221.049C118.004 220.589 118.357 219.924 118.657 219.211C119.245 217.773 119.619 216.114 119.946 214.324C120.582 210.74 120.973 206.6 121.288 202.027C121.914 192.87 122.171 181.94 122.545 169.805C122.743 163.74 122.941 157.367 123.444 150.778C123.572 149.129 123.733 147.47 123.942 145.799C124.161 144.134 124.407 142.448 124.883 140.794C125.15 139.978 125.466 139.178 125.766 138.372L126.338 137.21L126.627 136.626C126.739 136.442 126.857 136.259 126.975 136.075C127.841 134.567 129.071 133.264 130.468 132.205C131.874 131.145 133.463 130.394 135.052 129.751C136.635 129.096 138.251 128.529 139.668 127.642L140.198 127.307C140.364 127.183 140.519 127.048 140.685 126.913L141.166 126.513L141.583 126.053C141.722 125.896 141.861 125.75 141.995 125.588L142.364 125.08C142.621 124.75 142.846 124.399 143.07 124.048C143.525 123.35 143.883 122.61 144.194 121.848C144.461 121.069 144.675 120.28 144.793 119.469C145.039 117.848 145.082 116.215 145.066 114.594C145.06 112.977 145.007 111.372 144.953 109.783C144.83 106.61 144.713 103.502 144.595 100.469C144.552 98.9502 144.461 97.4583 144.477 95.9718C144.472 95.2313 144.472 94.4961 144.466 93.7664C144.477 93.0367 144.541 92.3123 144.579 91.5934C144.616 90.1501 144.862 88.7447 145.028 87.3609C145.317 85.9934 145.552 84.6312 145.991 83.3501C146.783 80.7609 147.959 78.3933 149.377 76.3284C150.789 74.2527 152.383 72.4581 153.86 70.7175C155.341 68.9824 156.684 67.2688 157.813 65.5499C158.086 65.1121 158.353 64.685 158.615 64.258C158.883 63.8364 159.086 63.3877 159.316 62.9661C159.717 62.085 160.07 61.2147 160.343 60.3499C161.439 56.8796 161.76 53.7282 161.958 51.1822C162.13 48.6254 162.124 46.6308 162.113 45.2794C162.103 44.6092 162.092 44.0957 162.087 43.7443C162.081 43.3984 162.081 43.22 162.081 43.22C162.081 43.22 162.135 43.9281 162.167 45.2794C162.199 46.6308 162.22 48.6254 162.065 51.193C161.889 53.7498 161.584 56.912 160.493 60.4039C160.22 61.2742 159.872 62.1553 159.466 63.0472C159.23 63.4742 159.027 63.9337 158.76 64.3553C158.497 64.7823 158.23 65.2148 157.957 65.658C156.828 67.3878 155.486 69.1175 154.004 70.8581C152.528 72.604 150.944 74.3987 149.548 76.4635C148.147 78.5176 146.986 80.8636 146.205 83.4312C145.772 84.7015 145.542 86.0582 145.258 87.415C145.098 88.7934 144.852 90.188 144.819 91.6258C144.787 92.3394 144.723 93.0637 144.713 93.788C144.718 94.5178 144.723 95.2475 144.723 95.988C144.713 97.4637 144.803 98.961 144.846 100.48C144.964 103.512 145.092 106.621 145.215 109.794C145.269 111.383 145.328 112.988 145.333 114.61C145.349 116.231 145.306 117.88 145.06 119.529C144.943 120.356 144.723 121.167 144.45 121.961C144.135 122.745 143.766 123.507 143.306 124.215C143.081 124.572 142.846 124.929 142.589 125.264L142.214 125.778C142.081 125.94 141.931 126.096 141.786 126.259L141.353 126.734L140.861 127.145C140.695 127.28 140.535 127.421 140.358 127.551L139.818 127.896C138.358 128.805 136.737 129.378 135.159 130.026C133.575 130.669 132.013 131.41 130.639 132.448C129.275 133.486 128.071 134.756 127.215 136.237C127.103 136.415 126.98 136.594 126.873 136.778L126.589 137.351L126.028 138.497C125.728 139.291 125.418 140.086 125.156 140.891C124.685 142.513 124.439 144.194 124.22 145.853C124.006 147.518 123.851 149.172 123.722 150.816C123.219 157.394 123.016 163.767 122.808 169.832C122.422 181.962 122.144 192.897 121.492 202.059C121.16 206.638 120.753 210.778 120.101 214.373C119.764 216.168 119.384 217.832 118.78 219.281C118.475 220 118.106 220.687 117.555 221.157C117.02 221.627 116.485 222.038 115.966 222.411C113.885 223.903 112.013 224.654 110.718 224.995C110.071 225.162 109.563 225.249 109.221 225.276C108.878 225.292 108.702 225.303 108.702 225.303Z" fill="#343542"/>
    <path d="M162.071 43.1983C162.071 43.1983 162.055 42.9659 162.022 42.5172C161.996 42.0632 161.953 41.3929 161.899 40.5172C161.883 40.074 161.889 39.5767 161.953 39.0361C162.006 38.4902 162.156 37.9118 162.279 37.2793C162.568 36.0253 163.124 34.5766 164.274 33.3334C165.419 32.0847 167.094 31.1658 168.971 30.409C170.875 29.6793 173.058 29.2414 175.417 29.036C176.599 28.9333 177.824 28.8793 179.092 28.8576C180.354 28.8306 181.686 28.9063 182.991 29.2685C183.644 29.4468 184.291 29.6739 184.928 29.9766C185.559 30.2847 186.142 30.7063 186.688 31.1658C187.233 31.6306 187.752 32.155 188.207 32.7388C188.426 33.0361 188.645 33.3442 188.811 33.6847C188.977 34.0253 189.132 34.3874 189.138 34.7982V34.8901L189.041 34.9009C186.64 35.1118 184.067 35.6415 181.371 35.9874L181.467 35.8631C181.788 38.501 182.109 41.2469 182.275 44.0956C182.312 44.8091 182.339 45.5281 182.328 46.2578C182.307 46.9929 182.275 47.7065 182.275 48.4416C182.269 49.9119 182.242 51.4038 182.162 52.9173C181.97 55.939 181.536 59.0525 180.622 62.1174C179.712 65.1769 178.37 68.1931 176.567 70.9986C174.796 73.8364 172.346 76.2365 170.688 79.2635C168.971 82.2311 167.719 85.5825 167.366 89.1285C167.174 90.8961 167.286 92.6961 167.302 94.5123C167.324 96.3286 167.345 98.1556 167.372 99.9934C167.398 103.669 167.372 107.394 167.249 111.156C167.099 115.496 166.874 119.788 166.329 123.988C166.104 126.091 165.617 128.172 164.852 130.118C164.061 132.059 162.943 133.826 161.712 135.459C159.203 138.718 156.085 141.28 153.228 143.934C152.881 144.275 152.533 144.615 152.185 144.956C151.859 145.313 151.527 145.664 151.212 146.026L150.778 146.599C150.629 146.788 150.484 146.978 150.383 147.188L150.035 147.805C149.933 148.016 149.88 148.243 149.8 148.464C149.361 150.318 149.174 152.221 148.97 154.086C148.259 161.567 147.927 168.713 147.601 175.394C147.291 182.075 147.066 188.302 146.873 193.989C146.686 199.675 146.536 204.816 146.424 209.335C146.371 211.594 146.328 213.697 146.285 215.632C146.258 216.595 146.306 217.53 146.141 218.411C145.986 219.286 145.686 220.092 145.295 220.784C144.509 222.178 143.429 223.157 142.407 223.816C141.374 224.47 140.39 224.822 139.583 225.022C138.775 225.222 138.138 225.281 137.716 225.303C137.293 225.324 137.074 225.314 137.074 225.314C137.074 225.314 137.127 225.308 137.234 225.303C137.341 225.297 137.502 225.297 137.716 225.276C138.138 225.249 138.769 225.178 139.572 224.973C140.369 224.762 141.342 224.411 142.364 223.751C143.375 223.092 144.434 222.119 145.205 220.735C145.59 220.049 145.879 219.254 146.028 218.389C146.189 217.53 146.135 216.6 146.162 215.627C146.199 213.692 146.237 211.589 146.28 209.33C146.381 204.811 146.515 199.665 146.692 193.978C146.868 188.292 147.087 182.064 147.382 175.378C147.697 168.697 148.018 161.551 148.724 154.053C148.928 152.183 149.104 150.286 149.553 148.388C149.639 148.156 149.698 147.913 149.805 147.686L150.163 147.043C150.276 146.821 150.42 146.626 150.575 146.432L151.019 145.843C151.34 145.475 151.672 145.113 152.003 144.756C152.351 144.415 152.704 144.07 153.052 143.729C155.919 141.059 159.022 138.507 161.504 135.28C162.723 133.664 163.825 131.923 164.606 130.005C165.36 128.08 165.836 126.048 166.061 123.945C166.601 119.761 166.826 115.475 166.981 111.139C167.099 107.383 167.131 103.664 167.104 99.988C167.083 98.1502 167.061 96.3231 167.04 94.5123C167.024 92.7015 166.912 90.8907 167.11 89.096C167.468 85.5068 168.741 82.1176 170.474 79.123C172.154 76.0635 174.615 73.6527 176.364 70.8526C178.156 68.0742 179.493 65.085 180.397 62.0417C181.312 58.9985 181.745 55.9119 181.938 52.9011C182.023 51.393 182.045 49.9065 182.055 48.4362C182.055 47.7065 182.087 46.9605 182.109 46.247C182.119 45.5281 182.093 44.8091 182.055 44.101C181.895 41.2632 181.579 38.5226 181.264 35.8847L181.253 35.7766L181.36 35.7658C184.051 35.4307 186.618 34.9009 189.047 34.6955L188.956 34.7982C188.918 34.0847 188.485 33.4307 188.068 32.8577C187.624 32.2847 187.121 31.7712 186.581 31.3117C186.04 30.8577 185.473 30.4414 184.864 30.1441C184.248 29.8522 183.607 29.6198 182.965 29.4414C181.675 29.0847 180.37 29.0036 179.113 29.0252C177.851 29.0468 176.626 29.0901 175.454 29.1928C173.101 29.3928 170.929 29.8198 169.041 30.5333C167.174 31.2739 165.51 32.182 164.376 33.4036C163.237 34.6253 162.675 36.0523 162.381 37.2956C162.252 37.928 162.103 38.5064 162.044 39.0415C161.98 39.5821 161.964 40.074 161.974 40.5118C162.017 41.3875 162.049 42.0578 162.071 42.5118C162.071 42.9659 162.071 43.1983 162.071 43.1983Z" fill="#343542"/>
    <path d="M189.042 34.7928C189.042 34.8036 188.94 34.8253 188.742 34.8577C188.512 34.8901 188.223 34.9334 187.87 34.9874C187.073 35.0955 185.982 35.2415 184.655 35.4144C181.9 35.755 178.167 36.2145 174.037 36.7226C173.748 36.755 173.459 36.7928 173.186 36.8253L173.101 36.8361L173.053 36.7658C172.512 35.928 171.929 35.1496 171.271 34.5009C170.608 33.8631 169.849 33.3658 169.03 33.2036C168.217 33.0306 167.399 33.1225 166.698 33.3442C165.997 33.5766 165.414 33.982 164.965 34.4307C164.082 35.355 163.649 36.3334 163.387 36.9928C163.258 37.328 163.173 37.5928 163.119 37.7766C163.06 37.955 163.034 38.0523 163.028 38.0523C163.018 38.0523 163.028 37.9496 163.071 37.7658C163.109 37.5766 163.183 37.3064 163.296 36.9604C163.536 36.2793 163.943 35.2739 164.836 34.3009C165.291 33.8252 165.89 33.3874 166.634 33.1333C167.372 32.8901 168.217 32.782 169.089 32.9604C169.966 33.1279 170.779 33.6577 171.464 34.3117C172.149 34.982 172.742 35.7766 173.293 36.6199L173.16 36.555C173.427 36.5226 173.716 36.4901 174.01 36.4523C178.129 35.9658 181.874 35.5388 184.628 35.2199C185.96 35.0793 187.057 34.9658 187.854 34.8793C188.212 34.8469 188.501 34.8198 188.731 34.8036C188.935 34.7874 189.042 34.782 189.042 34.7928Z" fill="#343542"/>
    <path d="M182.168 54.8741C182.163 55.1498 181.991 55.3931 181.735 55.4904L178.52 56.7174C178.028 56.9066 177.37 57.0471 177.065 56.6147C176.856 56.3174 176.958 55.885 177.193 55.6147C177.434 55.3444 177.776 55.1931 178.103 55.0525C179.338 54.5282 180.692 54.0039 181.943 53.4849C182.066 53.4309 182.2 53.5282 182.2 53.6633L182.168 54.8741Z" fill="#B78876"/>
    <path d="M182.285 55.9607C182.43 56.6255 182.077 57.3012 181.446 57.5445C180.504 57.912 179.188 58.4202 178.466 58.6958C177.974 58.885 177.316 59.0256 177.011 58.5931C176.802 58.2958 176.904 57.8634 177.139 57.5931C177.38 57.3229 177.723 57.1715 178.049 57.031C179.226 56.5337 180.515 56.031 181.718 55.5336C181.943 55.4418 182.2 55.5715 182.253 55.8147L182.285 55.9607Z" fill="#B78876"/>
    <path d="M181.756 57.5768C181.986 58.5498 181.467 59.5498 180.536 59.9065C179.675 60.2417 178.782 60.5876 178.054 60.8633C177.562 61.0525 176.904 61.193 176.599 60.7606C176.391 60.4633 176.492 60.0309 176.728 59.7606C176.969 59.4903 177.311 59.339 177.637 59.1984C178.958 58.6363 180.419 58.0795 181.74 57.5173L181.756 57.5768Z" fill="#B78876"/>
    <path d="M168.645 83.2149C168.671 83.2905 164.734 84.7554 159.856 86.4906C154.977 88.2257 150.998 89.5771 150.976 89.5014C150.949 89.4257 154.887 87.9608 159.765 86.2257C164.638 84.4905 168.618 83.1446 168.645 83.2149Z" fill="#343542"/>
    <path d="M166.532 85.377C166.553 85.4094 166.008 85.804 165.109 86.404C164.21 87.004 162.948 87.804 161.53 88.6527C160.113 89.5013 158.813 90.2365 157.861 90.7446C156.909 91.2581 156.304 91.5446 156.288 91.5122C156.267 91.4797 156.839 91.123 157.765 90.5716C158.765 89.977 160.011 89.2311 161.391 88.4094C162.766 87.5824 164.012 86.831 165.007 86.2364C165.933 85.6797 166.511 85.3445 166.532 85.377Z" fill="#343542"/>
    <path d="M76.7715 10.3357C76.7814 10.3457 76.7913 10.4556 76.8013 10.6655C76.8112 10.9153 76.8211 11.2052 76.831 11.5649C76.8409 12.3944 76.8607 13.5237 76.8905 14.9229C76.9202 17.8411 76.9599 21.8885 76.9996 26.7355L76.7715 26.5057C81.5109 26.4957 87.0831 26.4857 93.0321 26.4657C93.0916 26.4057 92.5463 26.9554 92.7744 26.7255V26.7155V26.6956V26.6556V26.5856V26.4457V26.1659V25.6062V24.4969C92.7744 23.7574 92.7744 23.0278 92.7744 22.3083C92.7744 20.8592 92.7744 19.4501 92.7843 18.0709C92.7942 15.3226 92.8041 12.7242 92.814 10.3357L93.0421 10.5656C88.2333 10.5156 84.2177 10.4756 81.3225 10.4556C79.9344 10.4356 78.8239 10.4157 77.9911 10.3957C77.6341 10.3857 77.3466 10.3757 77.0987 10.3657C76.8905 10.3557 76.7814 10.3457 76.7715 10.3357C76.7517 10.3157 77.1483 10.3057 77.8919 10.2857C78.7049 10.2757 79.8055 10.2558 81.1738 10.2258C84.0987 10.1958 88.1738 10.1558 93.0321 10.1158H93.2503V10.3457C93.2602 12.7342 93.2701 15.3326 93.28 18.0809C93.28 19.4601 93.28 20.8692 93.2899 22.3183C93.2899 23.0378 93.2899 23.7674 93.2899 24.5069V25.6162V26.1759V26.4557V26.5956V26.6656V26.7056V26.7255V26.7355C93.518 26.5057 92.9727 27.0553 93.0321 26.9954C87.0831 26.9854 81.5109 26.9754 76.7715 26.9554H76.5435V26.7355C76.593 21.8386 76.6327 17.7311 76.6525 14.7829C76.6724 13.4038 76.6922 12.3045 76.712 11.475C76.7418 10.7155 76.7616 10.3157 76.7715 10.3357Z" fill="#656570"/>
    <path d="M96.496 7.01145C96.8271 7.27032 93.3462 11.8629 88.7118 17.2608C87.7388 18.3921 86.7958 19.466 85.9231 20.4343L85.4216 21L84.8698 20.5206C81.0178 17.2032 78.3997 14.6817 78.6204 14.4324C78.8411 14.1831 81.8404 16.2924 85.8328 19.4468L84.7796 19.5331C85.6122 18.5264 86.525 17.4334 87.498 16.302C92.1325 10.9137 96.165 6.75258 96.496 7.01145Z" fill="#FF962E"/>
    <path d="M86.5724 0.0227349C86.5724 0.0151563 86.4672 0.0151561 86.2642 0.0151561C86.0386 0.0227347 85.7454 0.0303138 85.3619 0.0378924C85.1664 0.045471 84.9408 0.0454717 84.6927 0.0682075C84.4521 0.1061 84.1814 0.143993 83.8957 0.181886C83.61 0.227358 83.2942 0.265251 82.9634 0.318301C82.6401 0.401666 82.2942 0.485031 81.9258 0.575974C80.4671 0.954904 78.7002 1.59908 76.8957 2.78892C75.0911 3.95603 73.2114 5.6309 71.6926 7.8969C70.1963 10.1705 69.0459 13.0276 68.7377 16.2409C68.7076 17.0443 68.6099 17.8628 68.685 18.6964C68.7151 19.1132 68.7076 19.53 68.7678 19.9545C68.8279 20.3713 68.8956 20.7957 68.9557 21.2201C69.2941 22.8949 69.7903 24.6153 70.6475 26.2144C71.4821 27.8135 72.5648 29.3443 73.8806 30.7009C75.2265 32.0347 76.7904 33.1867 78.5423 34.0734C80.2867 34.9677 82.2115 35.5891 84.2265 35.8316C84.7228 35.9301 85.2341 35.9301 85.7378 35.9605C86.2491 35.9908 86.7604 36.0135 87.2717 35.9908C88.2943 35.9453 89.3243 35.8165 90.3394 35.5967C92.5424 35.1268 94.6251 34.2174 96.4447 33.0048L96.2567 33.02C98.3771 33.8763 100.452 34.7176 102.475 35.536L102.843 35.6876L102.738 35.3011C102.114 32.9972 101.497 30.7615 100.911 28.594L100.881 28.7608C102.625 26.419 103.738 23.7513 104.204 21.0988C104.437 19.7726 104.535 18.4539 104.445 17.1731C104.415 16.5365 104.385 15.8999 104.272 15.286C104.227 14.9753 104.174 14.6722 104.129 14.369C104.076 14.0659 103.979 13.7779 103.911 13.4823C102.708 8.76086 99.8282 5.2747 96.971 3.28153C95.5424 2.266 94.1289 1.53845 92.8432 1.08374C92.5199 0.970059 92.2116 0.856381 91.9108 0.750281C91.6026 0.674495 91.3093 0.598708 91.0311 0.522922C90.7529 0.454715 90.4822 0.386509 90.2266 0.318301C89.971 0.265251 89.7153 0.242514 89.4822 0.204621C89.0086 0.143992 88.595 0.0606284 88.2341 0.0454712C87.8807 0.030314 87.5724 0.0227347 87.3168 0.0151561C87.0837 0.0075775 86.9033 0.0075786 86.7604 0C86.6401 0.0151572 86.5724 0.0227349 86.5724 0.0227349C86.5724 0.0303135 86.6326 0.0378926 86.7604 0.0454712C86.9033 0.0530498 87.0837 0.0682066 87.3168 0.0909424C87.5649 0.1061 87.8732 0.128835 88.2266 0.151571C88.5875 0.181886 88.9935 0.272829 89.4597 0.341036C91.2943 0.682073 94.0387 1.4172 96.8432 3.47858C99.6402 5.47175 102.452 8.92759 103.61 13.5657C103.678 13.8537 103.768 14.1417 103.821 14.4372C103.866 14.7328 103.911 15.0359 103.956 15.3391C104.069 15.9378 104.099 16.5592 104.121 17.1883C104.204 18.4387 104.099 19.7347 103.866 21.0382C103.407 23.6376 102.309 26.2447 100.595 28.5334L100.542 28.6092L100.565 28.7002C101.152 30.8676 101.761 33.1033 102.377 35.4072L102.64 35.1723C100.618 34.3462 98.535 33.505 96.4222 32.6486L96.3244 32.6107L96.2342 32.6713C94.4522 33.8536 92.4221 34.7403 90.2642 35.2026C89.2717 35.4148 88.2642 35.5436 87.2642 35.5815C86.7604 35.6043 86.2642 35.5891 85.7679 35.5512C85.2717 35.5209 84.7754 35.5209 84.2867 35.4224C82.3243 35.1874 80.437 34.5887 78.7303 33.7096C77.0235 32.8456 75.4821 31.7164 74.1663 30.4129C72.8731 29.0867 71.8129 27.5937 70.9858 26.0325C70.1437 24.4713 69.655 22.7888 69.3166 21.1443C69.2565 20.7275 69.1888 20.3182 69.1287 19.909C69.0685 19.4997 69.076 19.0829 69.046 18.6812C68.9632 17.8628 69.061 17.067 69.0835 16.2713C69.3693 13.1186 70.4821 10.2993 71.9407 8.05605C73.4219 5.81278 75.2565 4.14549 77.031 2.97839C78.8054 1.78855 80.5423 1.12921 81.9859 0.727545C82.3468 0.629023 82.6927 0.538079 83.0085 0.454715C83.3393 0.401665 83.6401 0.348615 83.9258 0.303144C84.2115 0.257672 84.4747 0.2122 84.7153 0.174307C84.9559 0.143993 85.1814 0.143993 85.3769 0.128836C85.7529 0.0985218 86.0536 0.0757859 86.2717 0.0606287C86.4672 0.0454715 86.5724 0.0303135 86.5724 0.0227349Z" fill="#D1D4DD"/>
</svg>
