<?xml version="1.0" encoding="UTF-8"?>
<svg xmlns="http://www.w3.org/2000/svg" xmlns:xlink="http://www.w3.org/1999/xlink" width="32pt" height="32pt" viewBox="0 0 32 32" version="1.1">
<g id="surface1">
<path style=" stroke:none;fill-rule:nonzero;fill:rgb(0%,0%,0%);fill-opacity:1;" d="M 8.300781 26.09375 L 23.722656 26.09375 L 23.722656 27.277344 L 8.300781 27.277344 Z M 8.300781 26.09375 "/>
<path style=" stroke:none;fill-rule:nonzero;fill:rgb(0%,0%,0%);fill-opacity:1;" d="M 9.488281 4.746094 L 10.675781 4.746094 L 10.675781 9.488281 L 11.859375 9.488281 L 11.859375 4.746094 L 13.046875 4.746094 L 13.046875 5.929688 L 14.234375 5.929688 L 14.234375 3.558594 L 8.300781 3.558594 L 8.300781 5.929688 L 9.488281 5.929688 Z M 9.488281 4.746094 "/>
<path style=" stroke:none;fill-rule:nonzero;fill:rgb(0%,0%,0%);fill-opacity:1;" d="M 8.300781 22.535156 L 23.722656 22.535156 L 23.722656 23.722656 L 8.300781 23.722656 Z M 8.300781 22.535156 "/>
<path style=" stroke:none;fill-rule:nonzero;fill:rgb(0%,0%,0%);fill-opacity:1;" d="M 20.164062 0 L 7.117188 0 C 5.8125 0 4.746094 1.066406 4.746094 2.371094 L 4.746094 29.652344 C 4.746094 30.957031 5.8125 32.023438 7.117188 32.023438 L 24.90625 32.023438 C 26.210938 32.023438 27.277344 30.957031 27.277344 29.652344 L 27.277344 8.300781 Z M 20.164062 1.777344 L 25.738281 8.300781 L 21.347656 8.300781 C 20.753906 8.300781 20.164062 7.710938 20.164062 7.117188 Z M 26.09375 29.652344 C 26.09375 30.246094 25.617188 30.835938 24.90625 30.835938 L 7.117188 30.835938 C 6.523438 30.835938 5.929688 30.363281 5.929688 29.652344 L 5.929688 2.371094 C 5.929688 1.777344 6.40625 1.1875 7.117188 1.1875 L 18.976562 1.1875 L 18.976562 7.117188 C 18.976562 8.421875 20.042969 9.488281 21.347656 9.488281 L 26.09375 9.488281 Z M 26.09375 29.652344 "/>
<path style=" stroke:none;fill-rule:nonzero;fill:rgb(0%,0%,0%);fill-opacity:1;" d="M 8.300781 11.859375 L 23.722656 11.859375 L 23.722656 13.046875 L 8.300781 13.046875 Z M 8.300781 11.859375 "/>
<path style=" stroke:none;fill-rule:nonzero;fill:rgb(0%,0%,0%);fill-opacity:1;" d="M 8.300781 18.976562 L 23.722656 18.976562 L 23.722656 20.164062 L 8.300781 20.164062 Z M 8.300781 18.976562 "/>
<path style=" stroke:none;fill-rule:nonzero;fill:rgb(0%,0%,0%);fill-opacity:1;" d="M 8.300781 15.417969 L 23.722656 15.417969 L 23.722656 16.605469 L 8.300781 16.605469 Z M 8.300781 15.417969 "/>
</g>
</svg>
